<svg width="334" height="236" viewBox="0 0 334 236" fill="none" xmlns="http://www.w3.org/2000/svg">
<g opacity="0.5">
<path opacity="0.1" d="M111.674 235.186C127.871 235.186 141.001 233.081 141.001 230.484C141.001 227.887 127.871 225.782 111.674 225.782C95.4766 225.782 82.3463 227.887 82.3463 230.484C82.3463 233.081 95.4766 235.186 111.674 235.186Z" fill="#587EEC"/>
<path opacity="0.1" d="M271.093 235.318C291.304 235.318 307.689 233.213 307.689 230.616C307.689 228.019 291.304 225.914 271.093 225.914C250.881 225.914 234.497 228.019 234.497 230.616C234.497 233.213 250.881 235.318 271.093 235.318Z" fill="#587EEC"/>
<path opacity="0.1" d="M5.26568 101.772H35.812V143.328H7.50196C7.42671 143.755 7.35448 144.184 7.27622 144.614H35.812V178.128C35.7608 178.113 35.7157 178.095 35.6675 178.077C34.8609 177.758 34.0603 177.422 33.2597 177.061L32.748 176.83C31.9454 176.452 31.1428 176.051 30.3402 175.628C30.0603 175.481 29.7804 175.328 29.5035 175.172C25.0478 172.681 21 169.524 17.5005 165.811C17.3981 165.712 17.3018 165.607 17.1995 165.511C16.7119 164.982 16.2333 164.447 15.7698 163.9L15.2582 163.299C14.7104 162.63 14.1807 161.942 13.666 161.245C13.5908 161.142 13.5185 161.04 13.4403 160.944C11.3471 158.047 9.60911 154.911 8.26343 151.601C8.22129 151.502 8.18518 151.394 8.14605 151.301C7.73271 150.239 7.36652 149.168 7.04748 148.086C6.90903 147.633 6.7766 147.185 6.66223 146.714C6.62009 146.575 6.58397 146.44 6.55086 146.305C4.8413 139.645 4.63965 132.726 4.63965 125.856C4.63965 125.054 4.63965 124.249 4.63965 123.453C4.63965 120.674 4.67276 117.877 4.72091 115.083C4.72091 114.359 4.75101 113.638 4.76606 112.911C4.8082 111.066 4.86839 109.222 4.94665 107.377C4.96471 106.864 4.98878 106.353 5.01587 105.842C5.01587 105.548 5.03092 105.253 5.06102 104.959C5.13325 103.89 5.19345 102.829 5.26568 101.772Z" fill="#587EEC"/>
<path opacity="0.1" d="M35.812 55.5022H19.0565C21.7802 51.247 24.7562 47.1581 27.9685 43.2572C30.4576 40.205 33.0851 37.2308 35.812 34.3649V55.5022Z" fill="#587EEC"/>
<path opacity="0.1" d="M35.812 56.788V100.486H5.36206C5.36206 100.36 5.38313 100.231 5.39216 100.105C5.41925 99.7593 5.44633 99.4138 5.47643 99.0714C5.50954 98.6688 5.54566 98.2633 5.58478 97.8697C5.62391 97.4762 5.66605 96.9955 5.7112 96.5599C5.75634 96.1243 5.79848 95.6827 5.84964 95.2471C5.90081 94.8115 5.94596 94.3759 6.00013 93.9433C6.05431 93.5107 6.10247 93.0721 6.15965 92.6395C6.2048 92.279 6.25295 91.9215 6.30111 91.561C6.37034 91.0533 6.44257 90.5426 6.52083 90.0379C6.52083 89.9628 6.54189 89.8847 6.55393 89.8126C7.10328 86.118 7.85179 82.4556 8.79622 78.8414C9.78481 75.0501 11.0472 71.3353 12.5735 67.7261C14.1957 63.9504 16.095 60.2994 18.256 56.803L35.812 56.788Z" fill="#587EEC"/>
<path opacity="0.1" d="M43.1047 101.769V143.328H108.348V101.769H43.1047ZM43.1047 144.611V180.3C43.4779 180.378 43.8481 180.453 44.2153 180.516C44.7149 180.612 45.2115 180.699 45.7202 180.774C45.8165 180.789 45.9158 180.805 46.0212 180.814C46.2198 180.847 46.4245 180.874 46.6231 180.901C47.1257 180.97 47.6254 181.027 48.128 181.072C48.3658 181.096 48.6066 181.117 48.8473 181.135L49.4282 181.18C49.7443 181.204 50.0573 181.222 50.3673 181.231C50.5599 181.231 50.7525 181.249 50.9512 181.255C51.1017 181.255 51.2522 181.255 51.4087 181.255C51.5652 181.255 51.7879 181.255 51.9775 181.255C52.2364 181.255 52.4952 181.255 52.751 181.255H53.0972C53.356 181.255 53.6148 181.255 53.8707 181.231H53.8887C54.0663 181.231 54.2469 181.231 54.4275 181.207C54.4776 181.21 54.5279 181.21 54.578 181.207C54.7285 181.207 54.8789 181.207 55.0234 181.186H55.1288L56.137 181.108C56.4681 181.078 56.8022 181.039 57.1393 181.003L57.8255 180.922C60.6173 180.531 63.3781 179.945 66.0874 179.167C72.1732 177.473 78.1265 175.103 84.2093 173.366C92.0739 171.128 100.763 170.029 108.363 172.765V144.611H43.1047ZM108.348 55.502V0.174835C101.205 0.0975914 94.0811 0.93148 87.1499 2.65625C70.6292 6.79895 55.806 15.7843 43.1047 27.2601V55.499H46.3793V56.7818H43.1047V100.486H108.348V56.7848H59.824V55.502H108.348ZM192.149 36.8133C188.062 36.6691 183.999 35.3773 180.324 33.3825C173.296 29.5673 167.683 23.6762 161.41 18.7043C148.378 8.34909 132.215 2.10049 115.634 0.550352V55.502H208.772L209.004 55.2587L192.149 36.8133ZM200.634 35.3112L209.63 45.1648V32.7276C206.617 33.1002 203.978 33.9864 200.646 35.2992L200.634 35.3112ZM209.63 189.162V144.611H190.461C190.41 144.421 190.358 144.229 190.298 144.037C190.355 144.229 190.404 144.421 190.458 144.611H115.646V176.83C116.357 177.356 117.058 177.909 117.753 178.47C118.503 179.071 119.243 179.705 119.987 180.327L120.736 180.946C121.094 181.246 121.455 181.547 121.82 181.829C122.542 182.414 123.271 182.991 124.008 183.559C124.372 183.86 124.745 184.13 125.115 184.412C130.993 188.898 137.192 192.945 143.665 196.522C145.115 197.323 146.579 198.105 148.056 198.868C149.04 199.37 150.03 199.869 151.023 200.352C152.516 201.079 154.021 201.78 155.538 202.455C169.524 208.721 184.312 213.021 199.481 215.232C202.85 215.729 206.232 216.119 209.627 216.404V189.159H209.928L209.63 189.162ZM115.646 56.7848V100.486H209.642V56.7848H115.646ZM115.646 101.769V143.328H209.642V101.769H115.646ZM216.938 32.6736V46.5467L228.42 33.9714C224.616 33.3585 220.788 32.9209 216.938 32.6586V32.6736ZM216.938 101.784V143.328H308.36V101.769L216.938 101.784ZM308.026 192.461L308.348 144.611H216.938V216.881C222.826 217.128 228.724 217.058 234.605 216.671H234.708C237.517 216.495 240.313 216.238 243.096 215.902H243.159C258.006 214.177 272.524 210.311 286.259 204.423L308.026 192.461ZM325.988 108.612C325.645 107.804 325.287 107.002 324.923 106.209C324.243 104.707 323.523 103.247 322.783 101.787H315.65V143.328H333.684C333.675 131.564 330.693 119.547 325.997 108.597L325.988 108.612ZM315.65 144.626V185.782C320.73 180.922 325.022 175.361 328.113 169.004C331.83 161.35 333.531 153.061 333.669 144.62L315.65 144.626ZM315.65 89.674V100.489H322.115C320.159 96.766 318.004 93.1508 315.659 89.659L315.65 89.674ZM253.648 40.8268C253.173 40.6466 252.697 40.4633 252.218 40.2861C247.171 38.4257 242.014 36.8786 236.775 35.6537L219.204 54.9012L218.867 55.2587L219.093 55.505H281.63C272.92 49.5209 263.531 44.5887 253.657 40.8118L253.648 40.8268ZM283.463 56.7998H218.22L216.938 57.9714V100.486H228.176H228.194H308.372V79.8926C301.119 71.1373 292.748 63.3685 283.472 56.7848L283.463 56.7998Z" fill="#587EEC"/>
<path opacity="0.1" d="M35.812 78.8293V100.486H5.36206C5.36206 100.36 5.38313 100.231 5.39216 100.104C5.41925 99.759 5.44633 99.4135 5.47643 99.071C5.50954 98.6685 5.54566 98.2629 5.58478 97.8694C5.62391 97.4758 5.66605 96.9952 5.7112 96.5596C5.75634 96.124 5.79848 95.6824 5.84964 95.2468C5.90081 94.8112 5.94596 94.3756 6.00013 93.943C6.05431 93.5104 6.10247 93.0718 6.15965 92.6392C6.2048 92.2787 6.25295 91.9213 6.30111 91.5608C6.37034 91.0531 6.44257 90.5424 6.52083 90.0377C6.52083 89.9626 6.54189 89.8845 6.55393 89.8124C7.10328 86.1178 7.85179 82.4555 8.79622 78.8414L35.812 78.8293Z" fill="#587EEC"/>
<path opacity="0.1" d="M5.26568 101.772H35.812V143.328H7.50196C7.42671 143.755 7.35448 144.184 7.27622 144.614H35.812V178.128C35.7608 178.113 35.7157 178.095 35.6675 178.077C34.8609 177.758 34.0603 177.422 33.2597 177.061L32.748 176.83C31.9454 176.452 31.1428 176.051 30.3402 175.628C30.0603 175.481 29.7804 175.328 29.5035 175.172C25.0478 172.681 21 169.524 17.5005 165.811C17.3981 165.712 17.3018 165.607 17.1995 165.511C16.7119 164.982 16.2333 164.447 15.7698 163.9L15.2582 163.299C14.7104 162.63 14.1807 161.942 13.666 161.245C13.5908 161.142 13.5185 161.04 13.4403 160.944C11.3471 158.047 9.60911 154.911 8.26343 151.601C8.22129 151.502 8.18518 151.394 8.14605 151.301C7.73271 150.239 7.36652 149.168 7.04748 148.086C6.90903 147.633 6.7766 147.185 6.66223 146.714C6.62009 146.575 6.58397 146.44 6.55086 146.305C4.8413 139.645 4.63965 132.726 4.63965 125.856C4.63965 125.054 4.63965 124.249 4.63965 123.453C4.63965 120.674 4.67276 117.877 4.72091 115.083C4.72091 114.359 4.75101 113.638 4.76606 112.911C4.8082 111.066 4.86839 109.222 4.94665 107.377C4.96471 106.864 4.98878 106.353 5.01587 105.842C5.01587 105.548 5.03092 105.253 5.06102 104.959C5.13325 103.89 5.19345 102.829 5.26568 101.772Z" fill="#587EEC"/>
<path opacity="0.1" d="M66.0723 63.0428V100.486H43.1047V63.0428H46.3793V50.3654H59.821V63.0428H66.0723Z" fill="#587EEC"/>
<path opacity="0.1" d="M66.0723 101.769H43.1077V143.325H66.0723V101.769Z" fill="#587EEC"/>
<path opacity="0.1" d="M43.1047 144.614H66.0723V179.161C63.3631 179.938 60.6023 180.523 57.8105 180.912L57.1242 180.997C56.7872 181.036 56.4531 181.069 56.122 181.102C55.7909 181.135 55.4478 181.159 55.1137 181.18H55.0084C54.8639 181.18 54.7074 181.198 54.5659 181.201H54.4124C54.2318 181.201 54.0513 181.219 53.8707 181.225C53.6148 181.24 53.359 181.243 53.0972 181.246C52.9858 181.246 52.8805 181.246 52.7691 181.246C52.5102 181.246 52.2544 181.246 51.9956 181.246H51.4267C51.2732 181.246 51.1257 181.246 50.9662 181.246L50.3853 181.225C50.0844 181.225 49.7593 181.192 49.4463 181.171L48.8684 181.129L48.1491 181.063C47.6434 181.018 47.1408 180.96 46.6442 180.891L46.0422 180.807L45.7412 180.765C45.2386 180.687 44.742 180.603 44.2364 180.507C43.8661 180.444 43.499 180.366 43.1257 180.291L43.1047 144.614Z" fill="#587EEC"/>
<path opacity="0.1" d="M209.642 58.6202H190.704V100.483H209.642V58.6202Z" fill="#587EEC"/>
<path opacity="0.1" d="M209.645 101.769V143.328H115.646V125.402H165.714V135.977H190.705V101.769H209.645Z" fill="#587EEC"/>
<path opacity="0.1" d="M209.943 189.171H209.642V216.434C206.251 216.147 202.87 215.758 199.499 215.265C184.323 213.047 169.528 208.738 155.538 202.461C151.499 200.647 147.542 198.666 143.668 196.519C137.195 192.94 130.995 188.893 125.115 184.409C123.638 183.28 122.181 182.124 120.742 180.943C119.746 180.123 118.756 179.281 117.753 178.464C117.058 177.903 116.357 177.35 115.646 176.821V144.614H190.455C190.403 144.421 190.352 144.229 190.298 144.04C190.355 144.229 190.41 144.421 190.461 144.614H209.642V189.153C209.744 189.156 209.844 189.165 209.943 189.171Z" fill="#587EEC"/>
<path opacity="0.1" d="M259.033 55.502H246.692V51.6747H252.224V40.274C252.704 40.4483 253.182 40.6275 253.657 40.8118V51.6747H259.033V55.502Z" fill="#587EEC"/>
<path opacity="0.1" d="M288.763 100.486H228.182C228.182 100.486 228.182 100.486 228.203 100.501L228.176 100.486H216.938V58.6235H220.122V89.5662H234.674V71.2409H246.695V56.788H259.036V71.2529H271.057V89.5783H288.763V100.486Z" fill="#587EEC"/>
<path opacity="0.1" d="M216.938 101.769V143.328H288.763V101.769H216.938ZM308.261 192.247L308.36 159.352H288.763V144.632H216.938V216.881C222.826 217.128 228.724 217.058 234.605 216.671H234.708C237.517 216.495 240.313 216.238 243.096 215.902H243.159C258.006 214.177 272.524 210.311 286.259 204.423" fill="#587EEC"/>
<path opacity="0.1" d="M316.926 144.614H333.681C333.534 153.052 331.836 161.341 328.122 168.995C325.031 175.355 320.736 180.916 315.661 185.773V159.337H316.926V144.614Z" fill="#587EEC"/>
<path opacity="0.1" d="M333.69 143.328H316.926V108.597H325.997C330.692 119.547 333.675 131.564 333.69 143.328Z" fill="#587EEC"/>
<path opacity="0.1" d="M209.645 70.2585H199.499V83.3835H209.645V70.2585Z" fill="#587EEC"/>
<path opacity="0.1" d="M209.645 97.4639H199.499V100.486H209.645V97.4639Z" fill="#587EEC"/>
<path opacity="0.1" d="M209.645 101.769H199.499V110.586H209.645V101.769Z" fill="#587EEC"/>
<path opacity="0.1" d="M209.645 124.669H199.499V137.794H209.645V124.669Z" fill="#587EEC"/>
<path opacity="0.1" d="M209.645 151.875H199.499V165H209.645V151.875Z" fill="#587EEC"/>
<path opacity="0.1" d="M209.642 189.153C209.744 189.153 209.844 189.153 209.943 189.171H209.642V192.22H199.499V179.08H209.642V189.153Z" fill="#587EEC"/>
<path opacity="0.1" d="M209.642 206.279V216.418C206.251 216.132 202.87 215.743 199.499 215.25V206.279H209.642Z" fill="#587EEC"/>
<path opacity="0.1" d="M159.129 142.364H115.646V143.328H159.129V142.364Z" fill="#587EEC"/>
<path opacity="0.1" d="M159.129 144.611H115.646V148.306H159.129V144.611Z" fill="#587EEC"/>
<path opacity="0.1" d="M159.129 160.418H115.646V166.361H159.129V160.418Z" fill="#587EEC"/>
<path opacity="0.1" d="M159.126 178.473V184.416H125.115C123.639 183.29 122.18 182.134 120.739 180.949C119.743 180.129 118.756 179.288 117.75 178.473H159.126Z" fill="#587EEC"/>
<path opacity="0.1" d="M159.126 196.525V202.461H155.535C151.5 200.645 147.544 198.663 143.668 196.516L159.126 196.525Z" fill="#587EEC"/>
<path opacity="0.1" d="M243.168 105.797H234.608V114.341H243.168V105.797Z" fill="#587EEC"/>
<path opacity="0.1" d="M57.8315 65.9895H49.2717V74.5333H57.8315V65.9895Z" fill="#587EEC"/>
<path opacity="0.1" d="M57.8315 85.8346H49.2717V94.3782H57.8315V85.8346Z" fill="#587EEC"/>
<path opacity="0.1" d="M57.8315 105.681H49.2717V114.224H57.8315V105.681Z" fill="#587EEC"/>
<path opacity="0.1" d="M57.8315 125.523H49.2717V134.066H57.8315V125.523Z" fill="#587EEC"/>
<path opacity="0.1" d="M57.8315 145.368H49.2717V153.911H57.8315V145.368Z" fill="#587EEC"/>
<path opacity="0.1" d="M57.8315 165.213H49.2717V173.757H57.8315V165.213Z" fill="#587EEC"/>
<path opacity="0.1" d="M275.845 105.797H267.285V114.341H275.845V105.797Z" fill="#587EEC"/>
<path opacity="0.1" d="M243.168 126.871H234.608V135.415H243.168V126.871Z" fill="#587EEC"/>
<path opacity="0.1" d="M275.845 126.871H267.285V135.415H275.845V126.871Z" fill="#587EEC"/>
<path opacity="0.1" d="M243.168 147.942H234.608V156.486H243.168V147.942Z" fill="#587EEC"/>
<path opacity="0.1" d="M275.845 147.942H267.285V156.486H275.845V147.942Z" fill="#587EEC"/>
<path opacity="0.1" d="M243.168 169.016H234.608V177.56H243.168V169.016Z" fill="#587EEC"/>
<path opacity="0.1" d="M275.845 169.016H267.285V177.56H275.845V169.016Z" fill="#587EEC"/>
<path opacity="0.1" d="M243.168 190.09H234.608V198.634H243.168V190.09Z" fill="#587EEC"/>
<path opacity="0.1" d="M275.845 190.09H267.285V198.634H275.845V190.09Z" fill="#587EEC"/>
<path opacity="0.1" d="M234.608 216.671V211.161H243.165V215.887L234.608 216.671Z" fill="#587EEC"/>
<path opacity="0.1" d="M6.5177 89.8062V94.694H35.812V89.8062H6.5177ZM9.4372 94.3875H7.04742V90.1066H9.45526L9.4372 94.3875ZM12.3537 94.3875H9.94585V90.1066H12.3537V94.3875ZM15.2642 94.3875H12.8563V90.1066H15.2642V94.3875ZM18.1806 94.3875H15.7758V90.1066H18.1837L18.1806 94.3875ZM21.0941 94.3875H18.6863V90.1066H21.0941V94.3875ZM24.0106 94.3875H21.6028V90.1066H24.0106V94.3875ZM26.9271 94.3875H24.5193V90.1066H26.9271V94.3875ZM29.8406 94.3875H27.4327V90.1066H29.8406V94.3875ZM32.7541 94.3875H30.3462V90.1066H32.7541V94.3875ZM35.6675 94.3875H33.2597V90.1066H35.6675V94.3875Z" fill="#587EEC"/>
<path opacity="0.1" d="M6.5177 104.028V108.915H35.812V104.028H6.5177ZM9.4372 108.606H7.04742V104.337H9.45526L9.4372 108.606ZM12.3537 108.606H9.94585V104.337H12.3537V108.606ZM15.2642 108.606H12.8563V104.337H15.2642V108.606ZM18.1806 108.606H15.7758V104.337H18.1837L18.1806 108.606ZM21.0941 108.606H18.6863V104.337H21.0941V108.606ZM24.0106 108.606H21.6028V104.337H24.0106V108.606ZM26.9271 108.606H24.5193V104.337H26.9271V108.606ZM29.8406 108.606H27.4327V104.337H29.8406V108.606ZM32.7541 108.606H30.3462V104.337H32.7541V108.606ZM35.6675 108.606H33.2597V104.337H35.6675V108.606Z" fill="#587EEC"/>
<path opacity="0.1" d="M6.5177 118.255V123.152H35.812V118.255H6.5177ZM9.4372 122.834H7.04742V118.562H9.45526L9.4372 122.834ZM12.3537 122.834H9.94585V118.562H12.3537V122.834ZM15.2642 122.834H12.8563V118.562H15.2642V122.834ZM18.1806 122.834H15.7758V118.562H18.1837L18.1806 122.834ZM21.0941 122.834H18.6863V118.562H21.0941V122.834ZM24.0106 122.834H21.6028V118.562H24.0106V122.834ZM26.9271 122.834H24.5193V118.562H26.9271V122.834ZM29.8406 122.834H27.4327V118.562H29.8406V122.834ZM32.7541 122.834H30.3462V118.562H32.7541V122.834ZM35.6675 122.834H33.2597V118.562H35.6675V122.834Z" fill="#587EEC"/>
<path opacity="0.1" d="M6.5177 132.483V137.365H35.812V132.483H6.5177ZM9.4372 137.061H7.04742V132.786H9.45526L9.4372 137.061ZM12.3537 137.061H9.94585V132.786H12.3537V137.061ZM15.2642 137.061H12.8563V132.786H15.2642V137.061ZM18.1806 137.061H15.7758V132.786H18.1837L18.1806 137.061ZM21.0941 137.061H18.6863V132.786H21.0941V137.061ZM24.0106 137.061H21.6028V132.786H24.0106V137.061ZM26.9271 137.061H24.5193V132.786H26.9271V137.061ZM29.8406 137.061H27.4327V132.786H29.8406V137.061ZM32.7541 137.061H30.3462V132.786H32.7541V137.061ZM35.6675 137.061H33.2597V132.786H35.6675V137.061Z" fill="#587EEC"/>
<path opacity="0.1" d="M6.64417 146.707C6.76155 147.167 6.89398 147.627 7.03243 148.08V147.014H9.44026V151.286H8.15207C8.19119 151.385 8.23032 151.493 8.26945 151.586H35.812V146.707H6.64417ZM12.3628 151.286H9.95493V147.014H12.3628V151.286ZM15.2732 151.286H12.8654V147.014H15.2732V151.286ZM18.1897 151.286H15.7759V147.014H18.1837L18.1897 151.286ZM21.1032 151.286H18.6953V147.014H21.1032V151.286ZM24.0197 151.286H21.6118V147.014H24.0197V151.286ZM26.9361 151.286H24.5283V147.014H26.9361V151.286ZM29.8496 151.286H27.4418V147.014H29.8496V151.286ZM32.7631 151.286H30.3553V147.014H32.7631V151.286ZM35.6766 151.286H33.2687V147.014H35.6766V151.286Z" fill="#587EEC"/>
<path opacity="0.1" d="M13.4463 160.935C13.5215 161.031 13.5938 161.139 13.672 161.236H15.2642V163.287C15.4358 163.492 15.6043 163.696 15.7789 163.888V161.224H18.1867V165.51H17.2115C17.3078 165.61 17.4011 165.715 17.5125 165.811H35.821V160.935H13.4463ZM21.0942 165.51H18.6863V161.242H21.0942V165.51ZM24.0106 165.51H21.6028V161.242H24.0106V165.51ZM26.9271 165.51H24.5193V161.242H26.9271V165.51ZM29.8406 165.51H27.4328V161.242H29.8406V165.51ZM32.7541 165.51H30.3462V161.242H32.7541V165.51ZM35.6675 165.51H33.2597V161.242H35.6675V165.51Z" fill="#587EEC"/>
<path opacity="0.1" d="M29.5155 175.16C29.7894 175.316 30.0693 175.46 30.3522 175.616V175.466H32.76V176.818L33.2717 177.055V175.466H35.6795V178.065C35.7257 178.088 35.7741 178.106 35.824 178.119V175.16H29.5155Z" fill="#587EEC"/>
<path opacity="0.1" d="M228.182 100.486H228.2H228.182ZM209.642 189.15H209.943H209.642ZM190.298 144.037C190.355 144.229 190.404 144.421 190.458 144.611C190.41 144.421 190.358 144.229 190.298 144.037ZM228.182 100.477H228.2H228.182ZM46.3914 55.4932V56.7759H59.8361V55.4932H46.3914ZM209.642 189.15H209.943H209.642ZM190.298 144.037C190.355 144.229 190.404 144.421 190.458 144.611C190.41 144.421 190.358 144.229 190.298 144.037ZM228.182 100.477H228.2H228.182ZM209.642 189.141H209.943H209.642ZM190.298 144.037C190.355 144.229 190.404 144.421 190.458 144.611C190.41 144.421 190.358 144.229 190.298 144.037Z" fill="#587EEC"/>
<path d="M140.032 114.23C140.032 114.23 138.846 114.065 138.846 112.34C138.846 110.616 137.997 107.395 137.997 107.395C137.997 107.38 137.263 101.787 136.248 100.897C135.234 100.008 133.931 94.787 133.931 94.787C133.931 94.787 133.708 91.9541 133.254 91.3443C132.799 90.7344 132.185 89.2414 131.279 87.1114C130.373 84.9815 126.596 83.5065 126.596 83.5065C126.596 83.5065 119.767 79.553 117.832 78.2642C117.656 78.1583 117.491 78.0345 117.341 77.8947C117.004 77.4531 115.535 77.4441 115.535 77.4441C115.382 76.4768 115.234 75.3652 115.186 74.3588C115.186 74.2507 115.186 74.1425 115.171 74.0344C117.329 72.7612 118.954 70.7537 119.749 68.3806C119.785 68.2664 119.815 68.1463 119.848 68.0321C119.977 67.9896 120.096 67.9206 120.197 67.8296C120.299 67.7385 120.379 67.6274 120.435 67.5034C120.61 67.1159 120.613 66.6622 120.829 66.3017C121.082 65.8752 121.564 65.6468 121.943 65.3254C122.9 64.5143 123.147 63.1474 123.102 61.9037C123.072 60.8973 122.909 59.8819 122.972 58.8815L122.99 58.6292C123.008 58.479 123.029 58.3288 123.057 58.1846C123.204 57.4395 123.526 56.7366 123.707 55.9975C123.887 55.2585 123.905 54.4264 123.484 53.7895C122.867 52.8552 121.582 52.6689 120.453 52.5728C119.174 52.4647 118.03 52.6059 117.212 51.5454C116.828 50.9911 116.397 50.4714 115.923 49.9923C115.755 49.836 114.117 48.8387 114.117 48.7726C112.519 48.0338 110.708 47.8952 109.016 48.382C108.167 48.6284 107.367 49.0309 106.506 49.2322C104.649 49.6708 102.512 49.1962 100.935 50.2566C100.056 50.8575 99.5291 51.8128 99.0354 52.7441C98.6341 53.5111 98.2268 54.2772 97.8135 55.0422C97.1483 56.301 96.4711 57.5807 96.1912 58.9746C96.1323 59.278 96.0961 59.5852 96.0829 59.8939V59.9089C96.0829 60.0201 96.0829 60.1312 96.0829 60.2424V60.3836C96.0829 60.4887 96.0829 60.5909 96.1009 60.684C96.119 60.7771 96.116 60.8072 96.125 60.8702C96.134 60.9333 96.1491 61.0745 96.1671 61.1707C96.1852 61.2668 96.2213 61.435 96.2574 61.5672C96.2725 61.6243 96.2935 61.6784 96.3116 61.7324C96.3417 61.8346 96.3778 61.9337 96.4169 62.0329C96.438 62.0839 96.4591 62.138 96.4832 62.1891C96.5283 62.2942 96.5825 62.3964 96.6367 62.4895C96.6607 62.5315 96.6788 62.5706 96.7029 62.6096C96.7868 62.7494 96.8793 62.8838 96.9798 63.0122C97.6239 63.8143 98.5719 64.325 99.2732 65.076C99.2732 65.1061 99.2732 65.1361 99.2732 65.1632C99.2732 65.2473 99.2732 65.3284 99.2732 65.4125C99.3104 67.0875 99.7571 68.728 100.574 70.1914C101.392 71.6548 102.555 72.8967 103.962 73.8091C103.962 73.9232 103.978 74.0404 103.984 74.1546C104.042 75.0463 104.031 75.9412 103.95 76.8313C103.828 76.6872 103.674 76.5724 103.501 76.4955C103.329 76.4185 103.14 76.3813 102.951 76.3866C102.822 76.3803 102.692 76.3915 102.566 76.4197L102.539 76.3987V76.4257C101.877 76.5879 101.061 77.2759 100.281 79.2316C100.281 79.2316 97.9098 81.8992 96.1039 81.7881C94.2981 81.6769 89.7262 84.5639 89.7262 84.5639C89.7262 84.5639 85.2657 87.4539 84.3086 90.3979C83.7736 92.0674 83.1322 93.701 82.3883 95.2887L76.8744 106.629L75.8571 115.627C75.8571 115.627 76.4199 119.628 76.3086 120.238C76.1972 120.848 78.6231 126.349 78.6231 126.349C78.6231 126.349 86.6382 140.405 89.9128 141.126L90.1476 140.961C90.2877 141.034 90.4363 141.089 90.59 141.126L91.2642 140.651C91.3047 141.18 91.2875 141.712 91.213 142.237C90.7616 143.625 91.3816 152.683 92.1701 154.458C92.9587 156.234 92.6788 179.513 92.6788 179.513L92.5674 181.568C92.5674 181.568 92.5674 181.634 92.5945 181.748L92.5674 182.235L92.6487 182.277C92.7331 182.928 92.7056 183.59 92.5674 184.232C92.2845 185.134 92.1701 187.681 92.1701 187.681C92.1701 187.681 89.9158 202.065 90.9843 204.955C92.0528 207.845 92.9617 211.011 92.9617 211.011C92.9617 211.011 94.0904 214.616 93.0159 215.232C91.9414 215.848 88.8865 216.881 89.5155 218.383C90.0874 219.771 92.2574 223.49 92.5795 224.034L92.5524 224.32L92.1099 229.105C92.1816 229.737 92.3533 230.354 92.6186 230.932C93.1032 231.974 94.0452 233.056 95.8361 232.938C96.137 232.917 96.4862 232.881 96.8233 232.836C100.101 232.398 104.137 230.938 104.137 230.938C103.927 230.805 103.735 230.646 103.565 230.466C103.404 230.31 103.276 230.123 103.19 229.917C103.104 229.71 103.06 229.488 103.063 229.264C103.111 228.393 101.476 224.241 101.07 223.22C101.007 223.073 100.974 222.989 100.974 222.989C100.974 222.989 104.7 219.101 104.08 215.656C104.08 215.656 99.9564 213.252 101.314 211.933C102.671 210.615 105.097 206.826 105.097 206.826C105.097 206.826 105.209 192.662 105.097 190.547C104.981 189.079 105.051 187.602 105.305 186.152C105.35 185.933 105.404 185.719 105.461 185.509C107.339 185.789 109.234 185.932 111.132 185.939C111.824 185.939 112.528 185.939 113.239 185.897C113.239 186.097 113.248 186.313 113.266 186.545C113.422 190.054 113.714 196.207 113.952 198.493C114.289 201.77 116.152 210.603 116.152 210.603C116.152 210.603 112.598 212.88 116.772 218.492C116.772 218.492 116.772 220.525 116.495 220.82C116.2 221.782 115.961 222.761 115.782 223.752C115.607 224.809 115.535 225.879 115.818 226.434C116.495 227.762 120.558 227.654 120.558 227.654L120.658 227.636C121.425 227.557 122.2 227.631 122.938 227.853C123.677 228.075 124.363 228.442 124.959 228.931C126.503 230.169 132.363 229.625 135.535 229.231C136.778 229.075 137.609 228.931 137.609 228.931C137.649 228.79 137.663 228.644 137.651 228.498C137.618 227.72 137.007 226.014 132.865 224.491C132.865 224.491 128.971 221.877 129.025 219.6H128.944H128.492C128.82 219.582 129.031 219.6 129.031 219.6C129.031 219.6 127.505 214.042 128.128 213.592C128.751 213.141 126.885 206.983 126.885 206.983C126.885 206.983 125.816 196.648 125.759 195.924C125.762 195.303 125.856 194.686 126.039 194.092L125.759 188.426C125.759 188.426 125.705 186.542 125.759 185.93C125.75 185.398 125.707 184.867 125.63 184.34C125.603 184.13 125.576 183.911 125.546 183.695C127.005 183.325 127.953 182.983 127.953 182.983L127.785 163.26C129.025 160.857 129.254 155.585 129.248 151.845C129.248 149.441 129.139 147.663 129.139 147.663L130.834 144.902C130.834 144.902 131.225 141.598 130.605 140.874C130.331 140.546 130.455 140.207 130.68 139.927C130.798 139.834 130.921 139.75 131.05 139.675C131.05 139.675 131.032 139.648 131.011 139.609C131.13 139.51 131.255 139.421 131.388 139.341C131.388 139.341 130.786 138.41 131.324 138.017C131.83 138.359 132.282 138.617 132.625 138.828C132.601 139.047 132.576 139.173 132.576 139.173L132.721 138.873C133.052 139.059 133.254 139.173 133.254 139.173C133.254 139.173 135.908 133.895 135.851 133.117C135.794 132.339 137.657 129.061 137.657 129.061C137.657 129.061 137.883 127.34 138.9 126.619C139.917 125.898 139.689 120.674 139.689 120.674C139.689 120.674 139.971 117.952 140.649 116.84C141.326 115.729 140.032 114.23 140.032 114.23ZM89.2386 111.914L89.2898 113.172C88.9888 112.689 88.7721 112.34 88.7721 112.34L89.2386 111.914Z" fill="url(#paint0_linear)"/>
<path d="M133.398 136.893L132.748 139.657C132.748 139.657 127.541 137.004 126.602 133.634C125.663 130.263 128.173 128.983 128.173 128.983L133.025 131.035L133.398 136.893Z" fill="white"/>
<path opacity="0.1" d="M133.398 136.893L132.748 139.657C132.748 139.657 127.541 137.004 126.602 133.634C125.663 130.263 128.173 128.983 128.173 128.983L133.025 131.035L133.398 136.893Z" fill="black"/>
<path d="M104.176 230.955C104.176 230.955 99.3606 232.722 96.0498 232.944C94.2921 233.061 93.3681 231.986 92.8925 230.949C92.6328 230.373 92.4652 229.76 92.3959 229.132L92.8263 224.37L93.0551 221.835L100.089 220.011L101.085 223.051L101.178 223.283C101.579 224.298 103.183 228.429 103.135 229.291C103.133 229.512 103.176 229.731 103.26 229.935C103.345 230.139 103.47 230.323 103.628 230.478C103.79 230.66 103.974 230.82 104.176 230.955Z" fill="white"/>
<path d="M137.07 228.534C137.082 228.679 137.068 228.824 137.028 228.964C137.028 228.964 126.729 230.679 124.622 228.964C124.028 228.463 123.335 228.091 122.589 227.873C121.843 227.654 121.059 227.594 120.288 227.696C120.288 227.696 116.303 227.804 115.637 226.494C115.361 225.945 115.433 224.878 115.604 223.827C115.779 222.841 116.013 221.867 116.303 220.91L116.462 220.784L117.41 220.024L128.51 219.696H128.595C128.54 221.961 132.363 224.56 132.363 224.56C136.423 226.062 137.022 227.759 137.07 228.534Z" fill="white"/>
<path opacity="0.1" d="M137.07 228.534C137.081 228.679 137.065 228.824 137.025 228.964C137.025 228.964 126.729 230.679 124.622 228.964C124.028 228.463 123.336 228.091 122.59 227.873C121.844 227.655 121.061 227.594 120.291 227.696C120.291 227.696 116.303 227.804 115.64 226.494C115.364 225.941 115.433 224.878 115.604 223.826C117.139 223.98 119.562 224.361 120.513 225.271C121.952 226.656 124.39 228.038 125.886 228.146C127.057 228.222 134.06 228.444 137.07 228.534Z" fill="black"/>
<path opacity="0.1" d="M104.176 230.955C104.176 230.955 99.3606 232.722 96.0499 232.944C94.2922 233.062 93.3682 231.986 92.8956 230.946C94.1206 231.358 95.8211 231.791 96.715 231.394C97.7745 230.925 101.531 230.622 103.638 230.493C103.798 230.668 103.979 230.823 104.176 230.955Z" fill="black"/>
<path d="M111.321 88.6047C107.349 87.0636 102.238 81.9716 103.514 79.5923C103.797 78.9919 103.966 78.3439 104.011 77.6817C104.093 76.7828 104.105 75.8788 104.047 74.978C103.957 73.5027 103.779 72.034 103.514 70.58C103.514 70.58 115.917 70.8593 115.195 72.6828C114.984 73.2176 114.951 74.1459 115.008 75.1853C115.066 76.2247 115.216 77.3993 115.373 78.3937C115.589 79.7576 115.806 80.797 115.806 80.797C115.806 80.797 115.048 81.8575 114.602 81.9145C114.157 81.9716 117.022 90.8008 111.321 88.6047Z" fill="#CF6F80"/>
<path opacity="0.1" d="M101.169 223.283L101.076 223.385C97.3681 218.909 92.8835 224.487 92.8835 224.487L92.8173 224.37L93.0461 221.835L100.08 220.011L101.076 223.051L101.169 223.283Z" fill="black"/>
<path opacity="0.1" d="M128.598 220.012C128.598 220.012 125.889 219.955 124.444 221.228C122.999 222.502 116.017 221.505 116.318 221.228C116.407 221.091 116.461 220.934 116.474 220.772L117.422 220.012L128.522 219.684C128.564 219.885 128.598 220.012 128.598 220.012Z" fill="black"/>
<path d="M105.783 184.86C105.582 185.358 105.429 185.874 105.326 186.401C105.075 187.845 105.005 189.314 105.118 190.775C105.23 192.878 105.118 206.97 105.118 206.97C105.118 206.97 102.738 210.728 101.41 212.053C100.083 213.378 104.119 215.757 104.119 215.757C104.721 219.182 101.073 223.051 101.073 223.051C97.3651 218.575 92.8805 224.157 92.8805 224.157C92.8805 224.157 90.4426 219.951 89.8346 218.449C89.2267 216.947 92.2154 215.908 93.2658 215.298C94.3162 214.688 93.2146 211.092 93.2146 211.092C93.2146 211.092 92.3267 207.941 91.2733 205.066C90.2199 202.191 92.4351 187.879 92.4351 187.879C92.4351 187.879 92.5495 185.338 92.8234 184.451C92.9615 183.812 92.989 183.153 92.9046 182.505C92.8866 182.285 92.8655 182.102 92.8504 181.979C92.8354 181.856 92.8234 181.799 92.8234 181.799L92.8655 181.727L94.3704 178.927C94.3704 178.927 106.506 183.096 105.783 184.86Z" fill="#587EEC"/>
<path d="M128.598 219.681C128.598 219.681 125.889 219.624 124.444 220.883C122.999 222.141 116.017 221.159 116.318 220.883C116.619 220.606 116.595 218.56 116.595 218.56C112.498 212.979 115.993 210.714 115.993 210.714C115.993 210.714 114.163 201.926 113.832 198.667C113.6 196.39 113.314 190.27 113.16 186.777C113.094 185.275 113.055 184.241 113.055 184.241L116.402 183.568L116.832 183.481L124.905 181.865C124.905 181.865 125.127 183.367 125.278 184.596C125.353 185.12 125.395 185.649 125.404 186.179C125.35 186.78 125.404 188.66 125.404 188.66L125.678 194.299C125.499 194.89 125.407 195.505 125.404 196.123C125.458 196.84 126.509 207.121 126.509 207.121C126.509 207.121 128.336 213.255 127.713 213.697C127.09 214.138 128.598 219.681 128.598 219.681Z" fill="#587EEC"/>
<path opacity="0.1" d="M115.195 72.6828C114.984 73.2176 114.951 74.1458 115.008 75.1853C113.347 76.1838 111.437 76.6944 109.498 76.6582C107.559 76.6221 105.67 76.0408 104.047 74.981C103.957 73.5047 103.78 72.035 103.514 70.58C103.514 70.58 115.917 70.8533 115.195 72.6828Z" fill="black"/>
<path d="M119.99 66.0432C119.992 67.1257 119.821 68.2017 119.484 69.2306C118.73 71.5358 117.184 73.5008 115.118 74.7782C113.053 76.0556 110.602 76.5632 108.198 76.2112C105.794 75.8592 103.593 74.6704 101.982 72.8548C100.371 71.0393 99.4557 68.7138 99.3967 66.2895C99.3967 66.2054 99.3967 66.1273 99.3967 66.0432C99.3733 64.6786 99.6224 63.3231 100.129 62.0556C100.636 60.7881 101.391 59.634 102.35 58.6608C103.308 57.6875 104.452 56.9145 105.713 56.3868C106.974 55.8592 108.327 55.5874 109.695 55.5874C111.062 55.5874 112.416 55.8592 113.677 56.3868C114.938 56.9145 116.081 57.6875 117.039 58.6608C117.998 59.634 118.753 60.7881 119.26 62.0556C119.767 63.3231 120.016 64.6786 119.993 66.0432H119.99Z" fill="#CF6F80"/>
<path opacity="0.1" d="M111.321 88.6046C107.349 87.0635 102.238 81.9714 103.514 79.5921C103.797 78.9916 103.966 78.3436 104.011 77.6814L109.449 82.1426L112.814 84.8975L115.373 78.3964C115.589 79.7603 115.806 80.7997 115.806 80.7997C115.806 80.7997 115.048 81.8602 114.602 81.9173C114.157 81.9744 117.022 90.8007 111.321 88.6046Z" fill="black"/>
<path d="M125.386 108.321L120.844 184.475L114.921 184.863L99.5833 140.705L102.099 88.28L102.629 77.2037L109.449 82.7944L112.817 85.5492L115.451 78.859L120.348 83.1189L125.386 108.321Z" fill="#587EEC"/>
<path opacity="0.1" d="M105.783 184.86C105.582 185.358 105.429 185.874 105.326 186.401C101.016 185.737 96.83 184.432 92.9077 182.529L92.8264 182.487L92.8535 182.003L92.8686 181.751L94.3734 178.951C94.3734 178.951 106.506 183.097 105.783 184.86Z" fill="black"/>
<path opacity="0.1" d="M116.471 186.413C115.369 186.6 114.258 186.727 113.142 186.792C113.076 185.29 113.037 184.256 113.037 184.256L116.384 183.583L116.471 186.413Z" fill="black"/>
<path opacity="0.1" d="M125.26 184.611C123.12 185.166 119.815 185.791 116.856 185.401L116.814 183.496L124.887 181.88C124.887 181.88 125.109 183.367 125.26 184.611Z" fill="black"/>
<path opacity="0.1" d="M116.802 185.749C104.462 187.852 93.1604 181.823 93.1604 181.823L93.2688 179.78C93.2688 179.78 93.5487 156.621 92.7721 154.846C91.9956 153.07 91.3907 144.067 91.8301 142.685C92.2695 141.303 90.2259 120.581 90.2259 120.581L89.8948 112.169L77.7774 107.269L83.195 95.9977C83.9268 94.4174 84.5561 92.7918 85.0791 91.131C86.0212 88.205 90.3944 85.33 90.3944 85.33C90.3944 85.33 94.879 82.4581 96.6517 82.5662C98.4245 82.6744 100.748 80.0247 100.748 80.0247C102.464 75.6597 104.017 77.6364 104.017 77.6364C104.017 77.8437 104.017 77.6364 103.932 78.2823C103.33 83.0739 113.666 98.2148 113.814 98.4821L114.798 122.413L115.794 152.698L116.802 185.749Z" fill="black"/>
<path d="M116.471 185.749C104.131 187.852 92.8263 181.823 92.8263 181.823L92.9377 179.78C92.9377 179.78 93.2176 156.621 92.438 154.846C91.6585 153.07 91.0565 144.067 91.499 142.685C91.9414 141.303 89.8948 120.581 89.8948 120.581L89.5607 112.169L77.4373 107.251L82.8549 95.9799C83.585 94.3989 84.2143 92.7734 84.739 91.1132C85.6781 88.1872 90.0543 85.3122 90.0543 85.3122C90.0543 85.3122 94.5389 82.4402 96.3086 82.5484C98.0784 82.6565 100.405 80.0069 100.405 80.0069C102.124 75.6419 104.017 77.6186 104.017 77.6186C104.017 77.8259 103.836 77.919 103.932 78.2645C105.257 82.9119 113.335 98.1969 113.482 98.4643L114.479 122.395L115.475 152.68L116.471 185.749Z" fill="white"/>
<path opacity="0.1" d="M113.145 99.146C111.818 98.5932 104.787 90.5812 104.787 90.5812V88.7577C104.531 88.1569 103.011 88.5234 101.777 88.944L102.307 77.8678L102.909 78.3665C104.227 83.0109 112.992 98.8786 113.145 99.146Z" fill="black"/>
<path d="M113.479 98.4822C112.149 97.9294 105.118 89.9173 105.118 89.9173V88.0938C104.862 87.493 103.343 87.8595 102.109 88.2801L102.641 77.2037L103.243 77.7024C104.564 82.3469 113.332 98.2178 113.479 98.4822Z" fill="white"/>
<path opacity="0.1" d="M93.1604 138.44C93.3259 138.44 101.741 137.557 101.741 137.557C101.741 137.557 106.837 147.558 106.503 149.991C106.169 152.424 105.564 154.578 103.514 154.197C101.464 153.815 92.4832 154.497 92.4832 154.497L93.1604 138.44Z" fill="black"/>
<path d="M92.8263 137.776C92.9918 137.776 101.407 136.893 101.407 136.893C101.407 136.893 106.5 146.896 106.169 149.327C105.838 151.757 105.227 153.914 103.18 153.533C101.133 153.151 92.149 153.833 92.149 153.833L92.8263 137.776Z" fill="white"/>
<path d="M99.168 133.081C99.168 133.081 106.891 137.224 107.057 138.488C107.222 139.753 103.126 137.936 102.241 137.716C101.659 137.576 101.066 137.484 100.468 137.44L94.566 137.599L99.168 133.081Z" fill="#CF6F80"/>
<path opacity="0.1" d="M110.99 99.6627C111.439 99.6627 111.803 99.2996 111.803 98.8516C111.803 98.4037 111.439 98.0405 110.99 98.0405C110.542 98.0405 110.178 98.4037 110.178 98.8516C110.178 99.2996 110.542 99.6627 110.99 99.6627Z" fill="black"/>
<path d="M110.99 99.3324C111.439 99.3324 111.803 98.9693 111.803 98.5213C111.803 98.0733 111.439 97.7102 110.99 97.7102C110.542 97.7102 110.178 98.0733 110.178 98.5213C110.178 98.9693 110.542 99.3324 110.99 99.3324Z" fill="#3F3D56"/>
<path opacity="0.1" d="M112.486 134.775C112.935 134.775 113.299 134.412 113.299 133.964C113.299 133.516 112.935 133.153 112.486 133.153C112.037 133.153 111.674 133.516 111.674 133.964C111.674 134.412 112.037 134.775 112.486 134.775Z" fill="black"/>
<path d="M112.486 134.442C112.935 134.442 113.299 134.078 113.299 133.63C113.299 133.182 112.935 132.819 112.486 132.819C112.037 132.819 111.674 133.182 111.674 133.63C111.674 134.078 112.037 134.442 112.486 134.442Z" fill="#3F3D56"/>
<path opacity="0.1" d="M111.8 117.219C112.249 117.219 112.613 116.856 112.613 116.408C112.613 115.96 112.249 115.597 111.8 115.597C111.351 115.597 110.987 115.96 110.987 116.408C110.987 116.856 111.351 117.219 111.8 117.219Z" fill="black"/>
<path d="M111.8 116.889C112.249 116.889 112.613 116.525 112.613 116.077C112.613 115.629 112.249 115.266 111.8 115.266C111.351 115.266 110.987 115.629 110.987 116.077C110.987 116.525 111.351 116.889 111.8 116.889Z" fill="#3F3D56"/>
<path d="M130.533 137.272C130.533 137.272 131.087 138.101 130.533 138.488C129.979 138.876 130.587 139.813 130.587 139.813C130.587 139.813 129.206 140.621 129.814 141.348C130.422 142.075 130.036 145.359 130.036 145.359L128.375 148.105C128.375 148.105 128.474 149.874 128.48 152.265C128.48 155.997 128.261 161.242 127.045 163.633L127.213 183.253C127.213 183.253 121.395 185.374 116.525 184.728L115.803 153.245C115.803 153.245 116.856 135.391 117.245 131.966C117.472 130.189 117.564 128.396 117.522 126.604C117.522 126.604 117.356 121.245 116.799 118.757C116.799 118.757 116.197 107.981 116.137 104.998C116.11 103.571 116.185 99.4076 116.27 95.4482C116.363 91.1192 116.468 87.0366 116.468 87.0366L115.37 78.3606C115.37 78.3606 116.468 78.2495 116.799 78.6911C116.948 78.8293 117.109 78.9531 117.281 79.0606C119.177 80.3403 125.877 84.2758 125.877 84.2758C125.877 84.2758 129.585 85.7478 130.473 87.8567C131.361 89.9656 131.978 91.4617 132.408 92.0625C132.838 92.6633 133.073 95.4872 133.073 95.4872C133.073 95.4872 134.349 100.684 135.346 101.565C136.342 102.445 137.07 108.045 137.07 108.045L128.267 114.954C128.267 114.954 127.493 126.448 127.328 126.892C127.162 127.337 130.533 137.272 130.533 137.272Z" fill="white"/>
<path d="M130.867 137.272C130.867 137.272 131.418 138.101 130.867 138.488C130.316 138.876 130.918 139.813 130.918 139.813C130.918 139.813 129.546 140.63 130.148 141.357C130.75 142.084 130.37 145.368 130.37 145.368L128.709 148.114C128.709 148.114 128.808 149.883 128.817 152.274C128.817 156.005 128.598 161.251 127.382 163.642L127.547 183.262C127.547 183.262 121.72 185.383 116.856 184.737L116.137 153.254C116.137 153.254 117.19 135.4 117.579 131.975C117.806 130.197 117.898 128.405 117.853 126.613C117.853 126.613 117.687 121.254 117.133 118.766C117.133 118.766 116.531 107.99 116.468 105.007C116.441 103.58 116.519 99.4166 116.601 95.4572C116.694 91.1283 116.799 87.0456 116.799 87.0456L115.349 78.2526C115.349 78.2526 116.799 78.2526 117.133 78.7002C117.28 78.8401 117.442 78.964 117.615 79.0697C119.511 80.3494 126.214 84.2848 126.214 84.2848C126.214 84.2848 129.919 85.7569 130.807 87.8658C131.695 89.9747 132.312 91.4707 132.745 92.0715C133.178 92.6724 133.407 95.4963 133.407 95.4963C133.407 95.4963 134.683 100.693 135.68 101.574C136.676 102.454 137.395 108.041 137.395 108.041L128.592 114.951C128.592 114.951 127.818 126.445 127.649 126.889C127.481 127.334 130.867 137.272 130.867 137.272Z" fill="white"/>
<path opacity="0.1" d="M120.324 89.596L121.118 91.9091L116.935 96.1149C117.028 91.789 117.133 87.7034 117.133 87.7034L115.683 78.9104C115.683 78.9104 117.133 78.9104 117.467 79.358C117.614 79.4975 117.775 79.6204 117.949 79.7245L121.507 89.9685L120.324 89.596Z" fill="black"/>
<path d="M119.99 88.9321L120.787 91.2453L116.604 95.4512C116.697 91.1222 116.802 87.0395 116.802 87.0395L115.349 78.2463C115.349 78.2463 116.802 78.2463 117.133 78.694C117.281 78.833 117.442 78.9568 117.615 79.0635L121.175 89.3047L119.99 88.9321Z" fill="white"/>
<path opacity="0.1" d="M119.99 66.0434C119.992 67.1259 119.821 68.2019 119.484 69.2308C119.427 69.2396 119.369 69.237 119.313 69.2231C119.257 69.2092 119.205 69.1842 119.159 69.1497C119.081 66.4459 117.747 63.9074 116.107 61.7474C115.646 61.0953 115.088 60.5177 114.452 60.035C113.808 59.5526 113.008 59.3266 112.206 59.4012C111.303 59.5243 110.506 60.1372 109.594 60.2153C108.39 60.3144 107.312 59.4823 106.118 59.4402C105.632 59.4448 105.153 59.5528 104.712 59.7569C104.271 59.961 103.879 60.2566 103.562 60.6239C102.935 61.3651 102.468 62.2285 102.193 63.1594C101.72 64.5708 101.462 66.0454 101.428 67.5334C101.413 68.3746 101.332 69.429 100.549 69.7355C100.608 69.1168 100.538 68.4928 100.343 67.9027C100.147 67.3127 99.8313 66.7695 99.4148 66.3077L99.3967 66.2897C99.3967 66.2056 99.3967 66.1275 99.3967 66.0434C99.3733 64.6788 99.6224 63.3232 100.129 62.0557C100.636 60.7881 101.391 59.6341 102.35 58.6608C103.308 57.6875 104.452 56.9145 105.713 56.3868C106.974 55.8592 108.327 55.5874 109.695 55.5874C111.062 55.5874 112.416 55.8592 113.677 56.3868C114.938 56.9145 116.081 57.6875 117.039 58.6608C117.998 59.6341 118.753 60.7881 119.26 62.0557C119.767 63.3232 120.016 64.6788 119.993 66.0434H119.99Z" fill="black"/>
<path d="M113.958 49.7219C112.394 48.9876 110.615 48.8487 108.956 49.3314C108.122 49.5777 107.336 49.9773 106.491 50.1785C104.685 50.6141 102.578 50.1425 101.028 51.197C100.167 51.7978 99.6495 52.7471 99.1679 53.6694L97.964 55.9586C97.3079 57.2113 96.6457 58.4851 96.3718 59.864C96.0979 61.2429 96.2635 62.7871 97.1393 63.8956C97.7774 64.7037 98.7194 65.2114 99.4117 65.9715C99.8264 66.4338 100.141 66.9766 100.336 67.5659C100.53 68.1553 100.601 68.7784 100.543 69.3962C101.329 69.0958 101.404 68.0383 101.422 67.1972C101.456 65.7091 101.713 64.2346 102.187 62.8231C102.461 61.892 102.928 61.0284 103.556 60.2876C103.874 59.9206 104.266 59.6252 104.706 59.4211C105.147 59.2171 105.626 59.1089 106.111 59.1039C107.315 59.146 108.396 59.9752 109.588 59.876C110.491 59.8009 111.291 59.1851 112.2 59.0649C113.002 58.9892 113.803 59.2153 114.446 59.6988C115.082 60.1807 115.639 60.7584 116.098 61.4111C117.741 63.5712 119.075 66.1037 119.153 68.8134C119.493 69.0628 119.984 68.7383 120.152 68.3538C120.321 67.9693 120.327 67.5186 120.54 67.1521C120.787 66.7285 121.26 66.5032 121.63 66.1848C122.569 65.3767 122.804 64.0158 122.768 62.7811C122.732 61.5463 122.491 60.2936 122.725 59.0799C122.867 58.3349 123.186 57.6379 123.361 56.9019C123.535 56.1659 123.556 55.3397 123.144 54.7058C122.542 53.7745 121.275 53.5913 120.17 53.5042C118.915 53.396 117.792 53.5342 116.992 52.4797C116.616 51.9295 116.193 51.4128 115.728 50.9356C115.568 50.7794 113.958 49.788 113.958 49.7219Z" fill="#512E4E"/>
<path opacity="0.1" d="M81.2447 113.073L78.0995 107.269L77.1033 116.225C77.1033 116.225 77.6571 120.202 77.5457 120.812C77.4343 121.422 79.8151 126.889 79.8151 126.889C79.8151 126.889 87.6797 140.871 90.8911 141.592L101.741 133.853L98.864 130.206C98.864 130.206 97.8678 129.818 97.618 130.206C97.618 130.206 92.2756 121.031 91.7218 120.367C91.168 119.703 91.2764 118.379 91.2764 118.379C91.2764 118.379 90.4457 117.495 90.7226 116.666C90.9995 115.837 89.1183 112.962 89.1183 112.962L90.8339 111.361L81.2447 113.073Z" fill="black"/>
<path d="M78.2649 106.608L77.4342 107.269L76.438 116.225C76.438 116.225 76.9918 120.202 76.8804 120.812C76.7691 121.422 79.1528 126.889 79.1528 126.889C79.1528 126.889 87.0144 140.87 90.2258 141.591L101.079 133.853L98.1987 130.206C98.1987 130.206 97.2025 129.818 96.9527 130.206C96.9527 130.206 91.6103 121.031 91.0565 120.367C90.5027 119.703 90.6141 118.378 90.6141 118.378C90.6141 118.378 89.7834 117.495 90.0603 116.666C90.3372 115.837 88.4531 112.962 88.4531 112.962L90.1686 111.361L78.2649 106.608Z" fill="white"/>
<path opacity="0.1" d="M129.814 141.691C130.415 142.421 130.036 145.698 130.036 145.698L128.375 148.444C128.375 148.444 128.474 150.217 128.48 152.605L125.687 153.476C125.435 153.555 125.167 153.572 124.907 153.526C124.646 153.481 124.4 153.374 124.19 153.214C123.979 153.055 123.81 152.847 123.696 152.609C123.582 152.371 123.527 152.109 123.535 151.845L124.017 136.34L130.533 138.828C129.979 139.212 130.587 140.156 130.587 140.156C130.587 140.156 129.206 140.961 129.814 141.691Z" fill="black"/>
<path d="M130.148 141.357C130.75 142.087 130.37 145.368 130.37 145.368L128.709 148.113C128.709 148.113 128.808 149.883 128.817 152.274L125.973 153.16C125.726 153.237 125.464 153.254 125.209 153.209C124.954 153.164 124.713 153.059 124.507 152.903C124.301 152.746 124.136 152.543 124.024 152.31C123.912 152.077 123.858 151.82 123.866 151.562L124.351 136.01L130.87 138.497C130.313 138.882 130.921 139.822 130.921 139.822C130.921 139.822 129.546 140.63 130.148 141.357Z" fill="white"/>
<path d="M132.306 133.967C132.306 133.967 131.863 136.788 130.756 136.953C129.648 137.118 129.151 141.516 128.047 141.36C126.942 141.204 127.674 137.271 127.713 136.508C127.752 135.745 126.509 132.585 127.439 131.867C128.369 131.149 131.312 131.867 131.312 131.867L132.306 133.967Z" fill="#CF6F80"/>
<path opacity="0.1" d="M134.662 112.244L136.751 108.038C136.751 108.038 137.582 111.244 137.582 112.956C137.582 114.668 138.744 114.837 138.744 114.837C138.744 114.837 140.017 116.339 139.346 117.432C138.674 118.526 138.404 121.247 138.404 121.247C138.404 121.247 138.623 126.442 137.627 127.16C136.631 127.878 136.423 129.593 136.423 129.593C136.423 129.593 134.593 132.852 134.65 133.627C134.708 134.403 132.104 139.651 132.104 139.651C132.104 139.651 133.377 133.129 125.958 130.311C125.958 130.311 125.901 128.097 126.455 127.49C127.008 126.883 127.872 126.607 127.331 123.54C126.789 120.472 127.174 116.807 127.174 116.071C127.174 115.335 128.835 110.745 128.835 110.745L134.662 112.244Z" fill="black"/>
<path d="M135.565 107.438L137.389 108.038C137.389 108.038 138.223 111.244 138.223 112.956C138.223 114.669 139.385 114.837 139.385 114.837C139.385 114.837 140.658 116.339 139.987 117.432C139.315 118.526 139.048 121.248 139.048 121.248C139.048 121.248 139.267 126.442 138.271 127.16C137.275 127.878 137.052 129.593 137.052 129.593C137.052 129.593 135.225 132.853 135.282 133.628C135.34 134.403 132.733 139.651 132.733 139.651C132.733 139.651 134.009 133.129 126.587 130.311C126.587 130.311 126.533 128.097 127.087 127.49C127.641 126.883 128.504 126.607 127.963 123.54C127.421 120.473 127.806 116.807 127.806 116.071C127.806 115.335 129.467 110.745 129.467 110.745L135.565 107.438Z" fill="white"/>
<path opacity="0.1" d="M95.2793 216.449C95.2793 216.449 98.1868 214.625 100.095 215.95C102.003 217.275 95.2793 216.449 95.2793 216.449Z" fill="black"/>
<path opacity="0.1" d="M117.871 210.81C117.871 210.81 120.444 210.479 122.605 212.801C124.766 215.124 117.871 210.81 117.871 210.81Z" fill="black"/>
<g opacity="0.1">
<path opacity="0.1" d="M121.636 65.5267C121.266 65.8451 120.79 66.0735 120.544 66.497C120.333 66.8605 120.327 67.3081 120.158 67.6987C119.99 68.0892 119.499 68.4077 119.159 68.1613C119.081 65.4576 117.744 62.9191 116.104 60.7561C115.645 60.1034 115.088 59.5257 114.452 59.0438C113.808 58.5604 113.006 58.3343 112.203 58.4099C111.3 58.5331 110.506 59.1459 109.594 59.221C108.39 59.3232 107.309 58.491 106.115 58.449C105.629 58.4538 105.15 58.5622 104.71 58.7668C104.27 58.9715 103.878 59.2677 103.562 59.6356C102.934 60.3753 102.468 61.2379 102.193 62.1681C101.72 63.5796 101.462 65.0541 101.428 66.5421C101.41 67.3802 101.332 68.4257 100.556 68.7381C100.574 68.9601 100.574 69.1831 100.556 69.405C101.338 69.1046 101.416 68.0472 101.434 67.206C101.468 65.718 101.726 64.2435 102.199 62.832C102.474 61.9009 102.94 61.0373 103.568 60.2965C103.885 59.9296 104.277 59.6343 104.717 59.4302C105.157 59.2261 105.635 59.1179 106.121 59.1129C107.325 59.1549 108.408 59.9841 109.6 59.8849C110.503 59.8098 111.303 59.194 112.209 59.0738C113.012 58.9983 113.814 59.2243 114.458 59.7077C115.094 60.1896 115.651 60.7673 116.11 61.4201C117.75 63.58 119.087 66.1125 119.165 68.8222C119.505 69.0716 119.996 68.7471 120.164 68.3626C120.333 67.9781 120.339 67.5274 120.55 67.1609C120.796 66.7374 121.272 66.5121 121.642 66.1936C122.581 65.3855 122.816 64.0246 122.78 62.7899C122.78 62.7509 122.78 62.7118 122.78 62.6758C122.723 63.7453 122.437 64.8357 121.636 65.5267Z" fill="black"/>
<path opacity="0.1" d="M99.4177 65.3134C98.7255 64.5533 97.7804 64.0456 97.1454 63.2405C96.6106 62.5278 96.3052 61.6699 96.2695 60.7802C96.1748 61.892 96.4859 63.0005 97.1454 63.9014C97.7804 64.7095 98.7255 65.2172 99.4177 65.9773C100.082 66.7207 100.481 67.6631 100.552 68.657C100.599 68.0521 100.522 67.4442 100.327 66.8697C100.132 66.2951 99.8226 65.7658 99.4177 65.3134Z" fill="black"/>
<path opacity="0.1" d="M123.367 56.2439C123.189 56.9799 122.873 57.6799 122.729 58.4219C122.643 58.9177 122.612 59.4214 122.635 59.924C122.645 59.6377 122.677 59.3525 122.729 59.0708C122.873 58.3257 123.189 57.6288 123.367 56.8928C123.47 56.4868 123.504 56.0662 123.466 55.649C123.447 55.8495 123.414 56.0482 123.367 56.2439Z" fill="black"/>
</g>
<path opacity="0.1" d="M41.049 228.663C57.246 228.663 70.3763 226.558 70.3763 223.962C70.3763 221.365 57.246 219.261 41.049 219.261C24.852 219.261 11.7217 221.365 11.7217 223.962C11.7217 226.558 24.852 228.663 41.049 228.663Z" fill="#587EEC"/>
<path d="M41.9941 133.898H40.107V176.307H41.9941V133.898Z" fill="#535461"/>
<path d="M53.8526 176.178L53.7352 178.089L53.5667 180.793L53.4974 181.916L53.3319 184.62L53.2597 185.743L53.0911 188.447L51.1889 219.11C51.1063 220.43 50.523 221.668 49.5579 222.573C48.5928 223.478 47.3184 223.983 45.9941 223.983H36.1039C34.7799 223.983 33.5058 223.478 32.5412 222.573C31.5766 221.668 30.994 220.429 30.912 219.11L29.0189 188.426L28.8503 185.722L28.7811 184.599L28.6126 181.895L28.5434 180.772L28.3748 178.068L28.2544 176.157C28.2335 175.789 28.2881 175.421 28.4148 175.075C28.5416 174.73 28.7378 174.413 28.9914 174.146C29.2451 173.878 29.5508 173.665 29.8899 173.52C30.2289 173.374 30.5942 173.3 30.9632 173.3H51.1919C51.5596 173.303 51.9226 173.382 52.2588 173.53C52.5949 173.679 52.8969 173.895 53.1462 174.165C53.3956 174.434 53.5869 174.752 53.7083 175.098C53.8298 175.445 53.8789 175.812 53.8526 176.178Z" fill="#3F3D56"/>
<path d="M53.7352 178.089L53.5667 180.784H28.5313L28.3628 178.089H53.7352Z" fill="#9D9CB5"/>
<path d="M53.4976 181.907L53.332 184.605H28.7691L28.6006 181.907H53.4976Z" fill="#9D9CB5"/>
<path d="M53.2598 185.731L53.0942 188.426H29.0069L28.8383 185.731H53.2598Z" fill="#9D9CB5"/>
<path d="M25.4824 149.793C36.4711 157.73 41.058 170.143 41.058 170.143C41.058 170.143 27.8149 169.689 16.8232 161.752C5.83148 153.815 1.2536 141.405 1.2536 141.405C1.2536 141.405 14.4906 141.856 25.4824 149.793Z" fill="#587EEC"/>
<path d="M1.24463 141.405C1.24463 141.405 14.9933 149.021 19.4027 155.326C23.812 161.632 41.058 170.143 41.058 170.143" stroke="#535461" stroke-width="2" stroke-miterlimit="10"/>
<path d="M32.5764 133.805C38.5569 138.122 41.058 144.878 41.058 144.878C41.058 144.878 33.8496 144.632 27.8661 140.315C21.8827 135.998 19.3876 129.238 19.3876 129.238C19.3876 129.238 26.593 129.485 32.5764 133.805Z" fill="#587EEC"/>
<path d="M19.3876 129.238C19.3876 129.238 26.8699 133.384 29.2687 136.815C31.6675 140.246 41.058 144.878 41.058 144.878" stroke="#535461" stroke-width="2" stroke-miterlimit="10"/>
<path d="M49.7413 144.535C42.87 152.073 41.4163 161.923 41.4163 161.923C41.4163 161.923 51.1048 159.55 57.9701 152.01C64.8354 144.469 66.2952 134.622 66.2952 134.622C66.2952 134.622 56.6127 136.998 49.7413 144.535Z" fill="#587EEC"/>
<path d="M66.3011 134.625C66.3011 134.625 57.3501 142.352 55.0747 147.675C52.7993 152.998 41.4163 161.924 41.4163 161.924" stroke="#535461" stroke-width="2" stroke-miterlimit="10"/>
<path d="M301.979 141.883C301.979 141.883 297.01 117.207 298.912 114.137C298.912 114.137 298.981 111.283 298.867 107.645C298.867 107.506 298.867 107.368 298.867 107.227C299.202 107.45 299.551 107.65 299.912 107.828C301.664 108.727 303.676 108.986 305.6 108.561L304.095 106.888C303.734 106.488 303.358 106.055 303.279 105.527C303.201 104.998 303.418 104.526 303.605 104.055C305.034 100.45 305.109 95.9165 302.355 93.1647C300.029 90.8515 299.463 87.8654 296.938 85.7535C295.093 84.2063 294.079 81.9382 293.121 79.7452C292.312 77.8917 291.496 76.0231 291.033 74.0584C290.671 72.5233 290.527 70.9341 290.03 69.435C289.534 67.936 288.604 66.4789 287.15 65.809C286.632 65.5717 286.057 65.4365 285.585 65.1211C284.965 64.7035 284.592 64.0246 284.143 63.4298C281.865 60.4256 274.235 62.1951 270.623 63.4147C269.641 63.7219 268.732 64.2247 267.951 64.8928L267.984 64.8387C268.011 64.7936 268.044 64.7486 268.074 64.7035C267.679 65.0226 267.337 65.4029 267.063 65.8301C266.536 66.6622 266.316 67.6325 265.877 68.5338C265.347 69.6002 262.401 72.5773 263.668 73.776C263.756 73.8565 263.858 73.9215 263.969 73.9683C264.444 74.1659 264.968 74.2181 265.474 74.1185L265.419 74.2476C264.987 75.3052 264.765 76.4369 264.766 77.5792C264.766 82.515 268.845 86.5165 273.88 86.5165C274.826 86.5174 275.768 86.3725 276.67 86.0869C276.691 86.2011 276.709 86.3152 276.73 86.4294C276.73 86.4745 276.745 86.5195 276.751 86.5646L276.592 86.7869C276.584 86.7732 276.575 86.7601 276.565 86.7478L271.839 93.3389C271.117 93.8466 266.957 96.8507 266.723 99.1038C266.476 101.57 266.229 104.457 266.229 104.457L266.196 105.076C265.989 105.248 265.748 105.374 265.488 105.444C265.228 105.514 264.956 105.527 264.691 105.482C263.216 105.241 263.216 110.889 263.216 110.889C263.216 110.889 262.235 111.79 261.561 111.009C260.887 110.228 259.105 112.875 259.105 112.875L247.939 113.355L247.683 113.37L247.081 111.511C247.016 111.315 246.876 111.152 246.692 111.058C246.508 110.964 246.294 110.947 246.097 111.009C246.05 111.025 246.005 111.044 245.961 111.066L245.919 111.09L245.841 111.144L245.802 111.18C245.78 111.2 245.76 111.221 245.741 111.244L245.705 111.286L245.687 111.304C245.618 111.4 245.572 111.51 245.553 111.627C245.534 111.744 245.543 111.864 245.579 111.977L246.097 113.572C243.942 114.004 241.738 115.224 243.535 118.583L234.428 116.903L237.374 119.373L252.586 122.506C252.384 122.867 252.516 123.389 253.145 124.125C255.854 127.301 260.79 128.163 262.777 128.385C263.301 129.556 263.957 130.665 264.73 131.69L264.559 134.853C264.559 134.853 259.529 158.964 258.608 160.187C259.073 159.661 259.499 159.102 259.881 158.514C258.422 163.467 256.381 170.248 255.845 171.263C254.984 172.885 254.187 179.449 255.168 179.87C255.469 179.999 256.33 179.936 257.558 179.843V180.387L257.504 200.992C257.504 200.992 257.75 213.63 257.073 214.835C256.396 216.04 256.215 218.566 256.215 218.566C256.215 218.566 253.507 223.55 251.361 225.554C251.346 225.569 251.33 225.584 251.313 225.596L251.246 225.127C251.246 225.127 248.667 228.378 242.96 228.194C242.96 228.194 239.526 230.424 244.619 230.544C249.711 230.664 256.215 230.363 256.215 230.363C256.215 230.363 260.757 223.454 264.562 224.355V229.591H265.726V224.271C266.267 223.916 266.729 223.455 267.085 222.917C267.442 222.378 267.685 221.773 267.8 221.138C267.9 220.483 267.827 219.814 267.588 219.196C267.35 218.578 266.954 218.033 266.44 217.614C266.209 217.406 266.023 217.152 265.896 216.868C265.768 216.585 265.7 216.278 265.696 215.968L265.654 216.004C265.654 215.899 265.627 215.79 265.615 215.679C265.281 212.976 264.863 207.397 266.34 203.269C268.366 197.609 268.98 189.727 267.505 185.034C267.029 183.534 266.638 182.009 266.334 180.465C266.298 180.27 266.265 180.083 266.235 179.909C267.243 180.045 268.241 180.246 269.224 180.51C272.64 181.45 280.113 181.624 286.494 181.573C286.509 181.748 286.527 181.931 286.548 182.114C286.662 183.388 286.9 184.648 287.258 185.875C288.059 188.279 288.426 198.874 288.426 198.874C288.426 198.874 289.459 207.586 288.896 211.131C288.595 213.102 288.294 215.081 288.122 217.07V217.109C288.122 217.109 286.431 221.916 285.194 224.526C285.164 224.593 285.13 224.659 285.1 224.722C284.771 224.752 284.446 224.823 284.134 224.935C284.134 224.935 282.476 228.24 280.823 228.786C279.171 229.333 279.719 231.133 283.46 230.472C287.201 229.811 292.851 229.27 292.851 229.27L293.094 225.899L294.244 224.463L293.943 227.825L295.168 227.585L295.006 223.496L296.887 221.147C296.887 221.147 299.159 219.128 295.782 215.157V215.244C295.746 215.187 295.713 215.126 295.674 215.069V215.051C295.114 214.186 294.668 212.573 295.484 209.71C296.959 204.537 297.817 199.841 297.817 199.841C297.817 199.841 301.109 187.263 297.152 181.312H297.326C296.92 180.475 296.634 179.585 296.474 178.668C296.454 178.56 296.436 178.449 296.42 178.335C299.349 178.167 302.223 177.638 304.568 176.496C304.559 176.484 303.147 146.635 301.979 141.883ZM264.799 121.064V121.124L264.197 121.154L264.799 121.064ZM262.735 121.349C262.636 121.371 262.543 121.416 262.464 121.479C262.205 121.844 262.042 122.269 261.991 122.713L261.052 122.503C261.052 122.503 260.393 122.362 259.445 122.203L258.996 121.752C260.23 121.65 261.513 121.5 262.735 121.349Z" fill="url(#paint1_linear)"/>
<path d="M293.805 223.538L293.447 227.795L294.648 227.555L294.467 222.937L293.805 223.538Z" fill="#1D2366"/>
<path d="M266.406 203.326C264.959 207.442 265.368 212.997 265.693 215.694C265.814 216.692 265.925 217.299 265.925 217.299C265.925 217.299 263.761 222.219 263.58 222.406C263.4 222.592 257.212 226.362 257.212 226.362L252.887 228.882C252.887 228.882 248.498 226.963 250.602 226.302C251.032 226.13 251.419 225.866 251.737 225.53C253.844 223.532 256.489 218.566 256.489 218.566C256.489 218.566 256.67 216.046 257.332 214.847C257.994 213.649 257.753 201.052 257.753 201.052L257.805 180.519V177.842L266.036 177.902C266.088 178.811 266.207 179.715 266.391 180.606C266.687 182.145 267.07 183.665 267.538 185.16C268.989 189.844 268.387 197.688 266.406 203.326Z" fill="#FFB0B1"/>
<path opacity="0.1" d="M265.925 217.299C265.925 217.299 263.761 222.22 263.58 222.406C263.4 222.592 257.212 226.362 257.212 226.362L252.887 228.883C252.887 228.883 248.498 226.963 250.602 226.302C251.032 226.13 251.419 225.867 251.737 225.53L251.923 226.843L253.365 226.783L265.705 215.701C265.814 216.692 265.925 217.299 265.925 217.299Z" fill="black"/>
<path d="M265.775 215.98L253.365 227.137L251.923 227.197L251.622 225.095C251.622 225.095 249.1 228.333 243.496 228.153C243.496 228.153 240.131 230.373 245.118 230.493C250.106 230.613 256.474 230.313 256.474 230.313C256.474 230.313 260.923 223.403 264.646 224.304V229.523H265.79V224.256C266.321 223.899 266.775 223.438 267.124 222.901C267.472 222.364 267.709 221.762 267.818 221.132C267.917 220.483 267.847 219.819 267.615 219.204C267.382 218.59 266.995 218.045 266.491 217.623C266.266 217.412 266.086 217.158 265.963 216.875C265.84 216.593 265.775 216.288 265.775 215.98Z" fill="#1D2366"/>
<path d="M294.948 209.743C294.148 212.597 294.584 214.204 295.132 215.067V215.085C295.834 216.149 296.323 217.34 296.571 218.59L296.619 218.861L290.972 227.077L287.908 228.279C287.908 228.279 282.981 226.599 283.881 226.119C284.107 226.002 284.459 225.377 284.862 224.515C286.066 221.916 287.728 217.121 287.728 217.121V217.082C287.902 215.103 288.179 213.129 288.486 211.164C289.037 207.628 288.026 198.949 288.026 198.949C288.026 198.949 287.665 188.396 286.882 185.996C286.529 184.775 286.294 183.524 286.181 182.258C286.018 180.756 285.982 179.519 285.982 179.519C285.982 179.519 289.227 175.013 295.174 179.879C295.65 180.267 296.068 180.72 296.417 181.225C300.525 187.059 297.218 199.911 297.218 199.911C297.218 199.911 296.39 204.585 294.948 209.743Z" fill="#FFB0B1"/>
<path opacity="0.1" d="M296.628 218.861L290.981 227.077L287.918 228.279C287.918 228.279 282.991 226.6 283.89 226.119C284.116 226.002 284.468 225.377 284.872 224.515C286.957 224.497 288.038 226.48 288.038 226.48L290.68 226.059C290.68 226.059 294.166 219.222 294.948 218.804C295.731 218.386 295.069 215.683 295.069 215.683V214.995C295.09 215.019 295.108 215.046 295.132 215.07V215.088C295.835 216.152 296.323 217.343 296.571 218.594L296.628 218.861Z" fill="black"/>
<path d="M288.218 226.657C288.218 226.657 286.713 223.899 283.83 224.917C283.83 224.917 282.208 228.222 280.586 228.756C278.963 229.291 279.505 231.094 283.171 230.436C286.837 229.778 292.363 229.234 292.363 229.234L292.604 225.872L296.33 221.135C296.33 221.135 298.551 219.125 295.246 215.169V215.857C295.246 215.857 295.908 218.56 295.126 218.978C294.343 219.396 290.87 226.236 290.87 226.236L288.218 226.657Z" fill="#1D2366"/>
<path opacity="0.1" d="M266.045 177.897C266.097 178.805 266.216 179.709 266.401 180.6C263.012 180.105 259.866 180.351 257.805 180.513V177.837L266.045 177.897Z" fill="black"/>
<path opacity="0.1" d="M296.751 181.973C296.751 181.973 291.936 182.207 286.193 182.255C286.03 180.753 285.994 179.516 285.994 179.516C285.994 179.516 289.239 175.01 295.186 179.876C295.662 180.264 296.08 180.717 296.429 181.222C296.522 181.478 296.63 181.729 296.751 181.973Z" fill="black"/>
<path d="M296.751 181.432C296.751 181.432 275.659 182.451 269.23 180.651C262.801 178.852 256.429 180.411 255.469 179.993C254.509 179.576 255.288 173.036 256.131 171.416C256.974 169.797 261.597 153.422 261.597 153.422L266.045 130.272L270.732 128.983L271.063 128.89L279.228 126.643L285.212 124.994C285.212 124.994 297.109 171.356 296.089 174.775C295.719 176.084 295.659 177.461 295.914 178.798C296.07 179.71 296.352 180.597 296.751 181.432Z" fill="#1D2366"/>
<path d="M250.539 114.44C250.539 114.44 246.325 118.946 249.516 121.458C252.706 123.969 254.804 121.698 254.804 121.698L250.539 114.44Z" fill="#C7DAF5"/>
<path opacity="0.1" d="M250.539 114.44C250.539 114.44 246.325 118.946 249.516 121.458C252.706 123.969 254.804 121.698 254.804 121.698L250.539 114.44Z" fill="black"/>
<path d="M284.583 84.8136C284.583 84.8136 284.089 85.2822 283.346 85.9732C282.286 86.9615 280.718 88.4065 279.328 89.6172C277.401 91.2905 275.812 92.5192 276.381 91.4708C276.95 90.4223 276.842 88.5958 276.559 86.8864C276.538 86.7723 276.519 86.6581 276.498 86.547C276.264 85.2916 275.954 84.0516 275.568 82.8339C275.568 82.8339 278.68 78.8203 280.402 77.2372C281.043 76.6363 281.492 76.39 281.519 76.8076C281.549 77.3694 281.97 78.6101 282.494 79.9259C282.509 79.9679 282.524 80.007 282.542 80.049C282.891 80.9503 283.285 81.8756 283.632 82.6747C284.161 83.9003 284.583 84.8136 284.583 84.8136Z" fill="#FFB0B1"/>
<path opacity="0.1" d="M282.542 80.0489C282.249 81.6189 281.54 83.0818 280.487 84.2846C279.435 85.4873 278.078 86.3858 276.559 86.8862C276.319 85.5149 275.988 84.161 275.568 82.8337C275.568 82.8337 281.428 75.2784 281.519 76.8075C281.54 77.3873 281.997 78.673 282.542 80.0489Z" fill="black"/>
<path opacity="0.1" d="M275.975 88.905L276.733 87.8385C276.733 87.8385 277.236 90.8967 279.084 89.5479C280.932 88.199 281.022 99.6989 281.022 99.6989L279.039 129.299L264.706 128.443L265.112 114.14L266.735 106.93L270.747 96.4484L273.133 92.9846L275.975 88.905Z" fill="black"/>
<path d="M281.022 99.8822L279.216 126.646L279.026 129.482L271.035 129.004L270.734 128.986L264.715 128.626L265.121 114.32L266.744 107.11L270.756 96.6288L273.142 93.165L275.984 89.0704L276.742 88.007C276.742 88.007 277.245 91.0652 279.093 89.7163L279.132 89.6893C280.938 88.5477 281.022 99.8822 281.022 99.8822Z" fill="#1D2366"/>
<path d="M266.945 104.604C266.945 104.604 266.226 106.107 264.781 105.863C263.337 105.62 263.34 111.271 263.34 111.271C263.34 111.271 262.379 112.172 261.717 111.391C261.055 110.61 259.309 113.25 259.309 113.25L248.372 113.731C248.372 113.731 253.239 115.951 252.285 122.668C252.285 122.668 268.808 121.647 269.35 120.088C269.892 118.529 266.945 104.604 266.945 104.604Z" fill="white"/>
<path opacity="0.03" d="M266.945 104.604C266.945 104.604 266.226 106.107 264.781 105.863C263.337 105.62 263.34 111.271 263.34 111.271C263.34 111.271 262.379 112.172 261.717 111.391C261.055 110.61 259.309 113.25 259.309 113.25L248.372 113.731C248.372 113.731 253.239 115.951 252.285 122.668C252.285 122.668 268.808 121.647 269.35 120.088C269.892 118.529 266.945 104.604 266.945 104.604Z" fill="black"/>
<path d="M235.159 117.261L238.042 119.718L261.778 124.696L258.834 121.698L235.159 117.261Z" fill="white"/>
<path d="M276.02 89.8515C275.625 90.4523 274.497 93.5285 273.555 96.2142C272.769 98.4523 272.113 100.42 272.113 100.42C272.113 100.42 270.581 110.376 269.798 112.175C269.016 113.975 269.44 120.992 269.44 120.992L266.524 138.323C266.524 138.323 265.203 147.261 263.162 152.599C261.148 157.853 258.906 160.317 258.837 160.395C259.74 159.175 264.661 135.16 264.661 135.16L266.286 104.872C266.286 104.872 266.524 101.994 266.765 99.5338C267.005 97.0734 271.881 93.7148 271.881 93.7148L276.583 87.0426C277.055 87.6735 276.739 88.773 276.02 89.8515Z" fill="white"/>
<path d="M263.761 128.776C263.761 128.776 256.838 128.475 253.486 124.456C250.133 120.436 261.236 122.852 261.236 122.852L264.122 123.513L263.761 128.776Z" fill="#FFB0B1"/>
<path opacity="0.1" d="M296.089 174.778C295.719 176.088 295.659 177.465 295.915 178.801C288.363 179.336 280.285 177.299 280.285 177.299C278.78 178.681 274.816 180.718 274.816 180.718L272.655 153.981C271.273 150.376 270.732 131.489 270.732 131.489C270.732 131.489 270.855 130.5 271.033 129.019C271.033 128.983 271.033 128.944 271.048 128.908C271.586 124.772 272.655 117.006 273.179 115.957C273.901 114.515 270.957 110.679 270.957 110.679L272.297 99.2784L272.459 97.9025C275.282 96.6438 277.447 92.6242 277.447 92.6242L279.108 89.7192C280.914 88.5626 281.007 99.8972 281.007 99.8972L279.201 126.661L285.185 125.012C285.185 125.012 297.109 171.36 296.089 174.778Z" fill="black"/>
<path d="M303.839 176.625C295.608 180.705 280.646 176.926 280.646 176.926C279.141 178.308 275.177 180.344 275.177 180.344L273.013 153.608C271.635 150.003 271.093 131.116 271.093 131.116C271.093 131.116 272.832 117.024 273.555 115.585C273.766 115.164 273.663 114.539 273.413 113.866C272.185 110.663 271.733 107.216 272.095 103.806L272.673 98.9058L272.833 97.533C275.659 96.2712 277.823 92.2517 277.823 92.2517L279.328 89.6201L282.097 84.7715L283.409 82.4763L283.632 82.6776L285.332 84.2157C285.332 84.2157 286.055 84.8165 287.138 85.7178C289.495 87.7005 293.567 91.1913 295.668 93.3272C297.516 95.2078 298.1 102.523 298.268 108.029C298.38 111.655 298.313 114.497 298.313 114.497C296.45 117.558 301.323 142.135 301.323 142.135C302.458 146.885 303.839 176.625 303.839 176.625Z" fill="white"/>
<path opacity="0.03" d="M288.038 92.1918C288.038 92.1918 282.389 102.925 283.045 107.005C283.701 111.085 285.567 115.702 284.667 116.78C284.358 117.189 283.958 117.521 283.499 117.75C283.04 117.978 282.534 118.098 282.021 118.099C281.118 118.159 278.711 119.839 278.711 120.019C278.711 120.199 276.486 120.199 274.497 121.04C272.507 121.881 269.57 122.359 269.57 122.359C269.57 122.359 263.851 122.179 263.319 122.72C262.786 123.26 262.238 126.496 263.379 129.076C264.519 131.657 265.787 133.582 266.744 133.934C267.701 134.285 273.775 132.255 278.702 131.774C283.629 131.293 288.977 127.397 288.977 127.397C288.977 127.397 294.867 125.294 295.899 121.758C296.932 118.222 294.638 98.7888 294.638 98.7888C294.638 98.7888 292.905 89.7314 288.038 92.1918Z" fill="black"/>
<path opacity="0.03" d="M287.315 91.2903C287.315 91.2903 281.666 102.027 282.328 106.104C282.99 110.18 284.85 114.801 283.947 115.882C283.639 116.291 283.24 116.623 282.782 116.852C282.323 117.081 281.818 117.201 281.305 117.201C280.402 117.261 277.994 118.941 277.994 119.121C277.994 119.301 275.77 119.301 273.78 120.139C271.791 120.977 268.853 121.458 268.853 121.458C268.853 121.458 263.135 121.278 262.605 121.819C262.075 122.359 261.522 125.598 262.665 128.175C263.809 130.753 265.073 132.682 266.03 133.033C266.987 133.385 273.061 131.354 277.988 130.876C282.915 130.398 288.264 126.496 288.264 126.496C288.264 126.496 294.151 124.393 295.171 120.86C296.191 117.327 293.91 97.8875 293.91 97.8875C293.91 97.8875 292.182 88.8329 287.315 91.2903Z" fill="black"/>
<path d="M287.86 91.651C287.86 91.651 282.211 102.388 282.873 106.464C283.535 110.541 285.395 115.161 284.495 116.24C284.187 116.65 283.788 116.983 283.329 117.212C282.869 117.441 282.363 117.561 281.85 117.562C280.947 117.622 278.539 119.301 278.539 119.478C278.539 119.655 276.318 119.658 274.325 120.5C272.333 121.341 269.398 121.818 269.398 121.818C269.398 121.818 263.68 121.638 263.147 122.179C262.614 122.72 262.066 125.958 263.207 128.536C264.348 131.113 265.615 133.042 266.572 133.393C267.529 133.745 273.603 131.714 278.53 131.233C283.457 130.753 288.805 126.856 288.805 126.856C288.805 126.856 294.695 124.753 295.728 121.218C296.76 117.682 294.482 98.248 294.482 98.248C294.482 98.248 292.724 89.2056 287.86 91.651Z" fill="white"/>
<path opacity="0.1" d="M287.737 120.449C287.737 120.449 283.222 119.547 284.793 121.049C286.364 122.551 286.355 123.867 288.279 123.807C290.202 123.747 287.737 120.449 287.737 120.449Z" fill="black"/>
<path opacity="0.1" d="M295.367 152.767C295.367 152.767 293.326 154.146 297.23 157.324C301.133 160.503 295.367 152.767 295.367 152.767Z" fill="black"/>
<path opacity="0.1" d="M291.472 164.101C291.472 164.282 290.75 170.711 293.453 172.318C296.155 173.925 291.472 164.101 291.472 164.101Z" fill="black"/>
<path d="M248.558 113.716C246.379 113.791 241.672 114.455 244.113 119C246.271 123.023 249.898 120.334 251.938 118.294C251.441 116.393 250.231 114.754 248.558 113.716Z" fill="#FFB0B1"/>
<path d="M251.966 118.258L252.056 118.166L251.966 118.258Z" fill="#FFB0B1"/>
<path opacity="0.1" d="M287.138 85.9009C284.826 87.478 282.888 88.8088 282.509 89.0852C281.474 89.8512 279.499 94.3483 278.226 96.6435C277.212 98.491 273.916 98.9656 272.673 99.0828L272.833 97.7099C275.659 96.4482 277.823 92.4287 277.823 92.4287L283.409 82.6534L285.332 84.3988C285.332 84.3988 286.054 84.9996 287.138 85.9009Z" fill="black"/>
<path d="M287.138 85.7206C284.826 87.2978 282.888 88.6286 282.509 88.908C281.474 89.671 279.499 94.1682 278.226 96.4634C277.212 98.3109 273.916 98.7855 272.673 98.9027L272.833 97.5298C275.659 96.2681 277.823 92.2486 277.823 92.2486L283.409 82.4731L285.332 84.2125C285.332 84.2125 286.054 84.8073 287.138 85.7206Z" fill="#DCE7FF"/>
<path d="M282.69 78.0663C282.691 79.8697 282.143 81.6308 281.118 83.1162C279.908 84.8725 278.108 86.1377 276.043 86.6823C273.979 87.2269 271.787 87.0147 269.866 86.0843C267.944 85.1539 266.421 83.5669 265.572 81.6113C264.722 79.6557 264.604 77.461 265.237 75.4255C265.87 73.39 267.214 71.6484 269.023 70.5169C270.833 69.3854 272.989 68.9389 275.101 69.2584C277.212 69.5779 279.139 70.6422 280.531 72.2582C281.923 73.8742 282.689 75.9349 282.69 78.0663Z" fill="#FFB0B1"/>
<path opacity="0.1" d="M298.268 108.032C297.046 107.282 296.05 106.214 295.388 104.944C294.885 103.953 294.551 102.808 293.693 102.105C292.92 101.474 291.887 101.321 290.924 101.039C287.758 100.104 285.103 97.2204 285.004 93.9279C284.956 92.3777 285.44 90.8306 285.221 89.2955C285.096 88.4267 284.75 87.6044 284.215 86.9072C283.95 86.5738 283.659 86.2614 283.346 85.9729C282.924 85.5764 282.482 85.1919 282.097 84.7713C281.854 84.5109 281.642 84.2236 281.465 83.9151C281.321 83.6627 281.205 83.3958 281.118 83.119C280.516 81.2805 281.064 79.0995 280.402 77.24L280.366 77.1378C280.116 76.4769 279.607 75.816 278.9 75.7649C278.193 75.7139 277.588 76.2997 276.914 76.561C275.502 77.1078 273.979 76.1765 272.802 75.2272C271.626 74.2779 270.298 73.1934 268.802 73.4037C267.812 73.5449 267.03 74.2178 266.118 74.5663C265.912 74.6458 265.699 74.7072 265.483 74.7495C266.254 72.8284 267.672 71.2356 269.493 70.2446C271.313 69.2536 273.423 68.9264 275.459 69.3192C277.495 69.712 279.33 70.8003 280.65 72.397C281.969 73.9937 282.691 75.9993 282.69 78.0691C282.691 78.6941 282.625 79.3175 282.494 79.9286C282.509 79.9707 282.524 80.0097 282.542 80.0518C282.891 80.953 283.285 81.8783 283.632 82.6774L285.332 84.2155C285.332 84.2155 286.054 84.8164 287.138 85.7176C289.495 87.7003 293.567 91.1911 295.668 93.327C297.516 95.2136 298.094 102.526 298.268 108.032Z" fill="black"/>
<path d="M266.012 69.0779C266.443 68.2037 266.656 67.2244 267.171 66.3952C267.927 65.1936 269.245 64.4245 270.599 63.9588C274.136 62.7422 281.609 60.9757 283.842 63.9588C284.282 64.5597 284.646 65.2266 285.254 65.6412C285.717 65.9566 286.277 66.0918 286.786 66.3291C288.209 66.996 289.118 68.4501 289.603 69.9341C290.088 71.4181 290.232 73.0103 290.587 74.5395C291.042 76.5012 291.839 78.3607 292.634 80.2083C293.57 82.3893 294.563 84.6514 296.369 86.1925C298.834 88.2954 299.379 91.2725 301.666 93.5797C304.375 96.3195 304.288 100.841 302.891 104.431C302.708 104.902 302.5 105.395 302.572 105.897C302.644 106.398 303.018 106.855 303.37 107.255L304.851 108.922C301.347 109.766 297.383 107.94 295.752 104.734C295.249 103.743 294.915 102.601 294.054 101.895C293.284 101.264 292.249 101.114 291.288 100.832C288.122 99.8944 285.468 97.0075 285.368 93.7149C285.32 92.1678 285.805 90.6206 285.585 89.0885C285.463 88.2139 285.115 87.3858 284.577 86.6852C283.749 85.6067 282.5 84.8827 281.826 83.6811C280.685 81.6713 281.552 79.0607 280.73 76.9037C280.477 76.2428 279.972 75.5819 279.264 75.5308C278.557 75.4798 277.952 76.0656 277.275 76.3269C275.866 76.8737 274.343 75.9454 273.167 74.9931C271.99 74.0408 270.662 72.9593 269.164 73.1726C268.173 73.3108 267.394 73.9837 266.482 74.3352C265.808 74.5935 264.441 74.8248 263.851 74.2571C262.605 73.1125 265.492 70.1474 266.012 69.0779Z" fill="#591D4B"/>
<path opacity="0.1" d="M296.589 103.742C296.083 102.751 295.752 101.609 294.891 100.906C294.121 100.276 293.085 100.122 292.122 99.84C288.959 98.9057 286.304 96.0187 286.202 92.7262C286.154 91.1791 286.638 89.629 286.422 88.0969C286.296 87.2279 285.948 86.4056 285.413 85.7086C284.583 84.6301 283.334 83.9061 282.662 82.7045C281.522 80.6977 282.389 78.0872 281.564 75.9272C281.314 75.2693 280.805 74.6084 280.101 74.5543C279.397 74.5003 278.786 75.0921 278.112 75.3534C276.703 75.9002 275.177 74.9689 274.003 74.0196C272.829 73.0703 271.496 71.9858 270 72.1961C269.01 72.3373 268.227 73.0102 267.319 73.3587C266.644 73.617 265.275 73.8514 264.685 73.2836C263.445 72.0819 266.331 69.1229 266.849 68.0594C267.279 67.1822 267.493 66.2059 268.011 65.3768C268.038 65.3317 268.068 65.2866 268.098 65.2416C267.711 65.5618 267.377 65.9409 267.108 66.3651C266.593 67.1942 266.379 68.1676 265.949 69.0478C265.428 70.1112 262.542 73.0793 263.785 74.2719C264.387 74.8427 265.741 74.6084 266.416 74.35C267.319 73.9986 268.107 73.3256 269.097 73.1875C270.602 72.9742 271.927 74.0587 273.1 75.008C274.274 75.9573 275.809 76.8885 277.212 76.3418C277.886 76.0804 278.476 75.4916 279.198 75.5457C279.92 75.5998 280.402 76.2577 280.664 76.9186C281.486 79.0755 280.619 81.6861 281.759 83.6959C282.434 84.8765 283.683 85.6155 284.51 86.7C285.049 87.4006 285.396 88.2286 285.519 89.1033C285.738 90.6354 285.254 92.1825 285.302 93.7296C285.401 97.0341 288.056 99.9091 291.222 100.846C292.176 101.129 293.218 101.279 293.988 101.91C294.852 102.616 295.192 103.757 295.686 104.749C297.317 107.954 301.281 109.781 304.784 108.936L304.086 108.149C301.049 108.194 297.976 106.47 296.589 103.742Z" fill="black"/>
<path opacity="0.1" d="M275.839 90.0316C275.445 90.6324 274.316 93.7088 273.374 96.3947C272.492 96.0522 271.692 93.868 271.692 93.868L276.393 87.1925C276.875 87.8534 276.559 88.95 275.839 90.0316Z" fill="black"/>
<path d="M276.02 89.8512C275.626 90.452 274.497 93.5282 273.555 96.2139C272.673 95.8744 271.872 93.6874 271.872 93.6874L276.574 87.0154C277.055 87.6733 276.739 88.7728 276.02 89.8512Z" fill="#DCE7FF"/>
<path d="M248.685 120.542L246.078 112.338C246.048 112.241 246.036 112.14 246.044 112.04C246.053 111.939 246.081 111.841 246.128 111.752C246.174 111.662 246.238 111.583 246.315 111.518C246.392 111.453 246.482 111.404 246.578 111.373C246.772 111.313 246.982 111.331 247.162 111.425C247.343 111.518 247.479 111.679 247.541 111.872L250.148 120.067L249.889 121.782L248.685 120.542Z" fill="#BE8B87"/>
<path opacity="0.1" d="M246.325 111.616C246.52 111.555 246.731 111.573 246.912 111.666C247.093 111.76 247.229 111.921 247.292 112.115L249.898 120.31L249.702 121.596L249.892 121.794L250.151 120.079L247.529 111.884C247.467 111.691 247.331 111.53 247.151 111.436C246.97 111.343 246.76 111.325 246.566 111.385C246.403 111.438 246.262 111.544 246.166 111.685C246.217 111.658 246.27 111.635 246.325 111.616Z" fill="white"/>
<path d="M248.685 120.542L250.148 120.079L249.934 121.485L249.889 121.794L249.461 121.35L248.685 120.542Z" fill="#EFC8C4"/>
<path d="M249.461 121.35C249.487 121.318 249.519 121.291 249.555 121.272C249.576 121.258 249.6 121.251 249.625 121.251C249.651 121.251 249.675 121.258 249.696 121.272C249.717 121.296 249.734 121.324 249.747 121.353C249.767 121.386 249.794 121.414 249.827 121.436C249.859 121.457 249.896 121.471 249.934 121.476L249.889 121.777L249.461 121.35Z" fill="#727A9C"/>
<path d="M246.063 115.251C246.063 115.251 251.291 115.221 250.06 117.441C248.829 119.661 246.906 119.929 246.906 119.929L246.063 115.251Z" fill="#FFB0B1"/>
<path d="M213.549 15.6191H213.323C204.342 15.6191 196.399 20.3627 191.83 27.3623C187.261 20.3627 179.319 15.6191 170.337 15.6191H170.112C163.371 15.6833 156.929 18.3998 152.184 23.1784C147.439 27.957 144.776 34.4115 144.772 41.1393C144.772 49.4938 148.438 61.3481 155.586 71.1025C169.206 89.6891 191.83 105.95 191.83 105.95C191.83 105.95 214.455 89.6921 228.071 71.1025C235.222 61.3481 238.885 49.4938 238.885 41.1393C238.881 34.412 236.218 27.9579 231.474 23.1794C226.73 18.4009 220.288 15.684 213.549 15.6191ZM210.319 72.5325C209.296 72.5286 208.299 72.2161 207.457 71.636C206.615 71.0559 205.969 70.2353 205.603 69.282H200.233C199.88 69.2798 199.536 69.1674 199.249 68.9606C198.963 68.7538 198.748 68.4629 198.635 68.1284L196.986 63.1686L191.767 81.3706C191.665 81.721 191.453 82.029 191.161 82.2484C190.869 82.4678 190.513 82.5867 190.148 82.5873H190.042C189.661 82.5689 189.298 82.4204 189.013 82.1667C188.728 81.913 188.539 81.5694 188.477 81.1934L183.099 48.9049L179.168 68.0112C179.078 68.3742 178.869 68.6966 178.573 68.9269C178.278 69.1572 177.914 69.2822 177.54 69.282H169.976C169.749 69.2916 169.523 69.2553 169.311 69.1753C169.098 69.0953 168.905 68.9732 168.741 68.8165C168.577 68.6597 168.447 68.4715 168.357 68.2632C168.268 68.0548 168.223 67.8307 168.223 67.6042C168.223 67.3777 168.268 67.1535 168.357 66.9452C168.447 66.7368 168.577 66.5486 168.741 66.3919C168.905 66.2351 169.098 66.1131 169.311 66.0331C169.523 65.9531 169.749 65.9168 169.976 65.9264H176.215L181.784 40.238C181.875 39.8582 182.096 39.5219 182.408 39.2866C182.72 39.0512 183.105 38.9315 183.496 38.9478C183.887 38.9641 184.26 39.1155 184.552 39.376C184.843 39.6366 185.035 39.9901 185.094 40.3762L190.587 73.3135L195.264 57.0281C195.362 56.6851 195.568 56.3828 195.851 56.1662C196.135 55.9496 196.481 55.8305 196.838 55.8265H196.872C197.225 55.8266 197.57 55.9382 197.856 56.1453C198.143 56.3525 198.356 56.6446 198.467 56.9801L201.449 65.9354H205.537C205.827 65.0542 206.356 64.2702 207.065 63.67C207.774 63.0699 208.635 62.6769 209.553 62.5344C210.472 62.3919 211.412 62.5054 212.27 62.8625C213.128 63.2196 213.87 63.8063 214.415 64.5578C214.96 65.3094 215.286 66.1967 215.358 67.1217C215.429 68.0466 215.243 68.9734 214.821 69.7996C214.398 70.6258 213.755 71.3194 212.962 71.8038C212.169 72.2881 211.258 72.5445 210.328 72.5445L210.319 72.5325Z" fill="#1D957F"/>
</g>
<defs>
<linearGradient id="paint0_linear" x1="108.348" y1="232.953" x2="108.348" y2="48.0966" gradientUnits="userSpaceOnUse">
<stop stop-color="#808080" stop-opacity="0.25"/>
<stop offset="0.54" stop-color="#808080" stop-opacity="0.12"/>
<stop offset="1" stop-color="#808080" stop-opacity="0.1"/>
</linearGradient>
<linearGradient id="paint1_linear" x1="67184.1" y1="139477" x2="67184.1" y2="44588.4" gradientUnits="userSpaceOnUse">
<stop stop-color="#808080" stop-opacity="0.25"/>
<stop offset="0.54" stop-color="#808080" stop-opacity="0.12"/>
<stop offset="1" stop-color="#808080" stop-opacity="0.1"/>
</linearGradient>
</defs>
</svg>
