<svg width="338" height="542" viewBox="0 0 338 542" fill="none" xmlns="http://www.w3.org/2000/svg">
<path d="M0 30C0 13.4315 13.4315 0 30 0H117C133.569 0 147 13.4315 147 30V117C147 133.569 133.569 147 117 147H30C13.4315 147 0 133.569 0 117V30Z" fill="#1D957F"/>
<path d="M261 388C261 371.431 274.431 358 291 358H308C324.569 358 338 371.431 338 388V405C338 421.569 324.569 435 308 435H291C274.431 435 261 421.569 261 405V388Z" fill="#1D957F"/>
<path d="M32 495C32 478.431 45.4315 465 62 465H79C95.5685 465 109 478.431 109 495V512C109 528.569 95.5685 542 79 542H62C45.4315 542 32 528.569 32 512V495Z" fill="#1D957F"/>
<rect x="83" y="500" width="206" height="27" rx="13.5" fill="#F0F0F0" fill-opacity="0.49"/>
</svg>
