<svg width="151" height="207" viewBox="0 0 151 207" fill="none" xmlns="http://www.w3.org/2000/svg">
<path d="M0.0525128 198.44C0.600722 188.572 8.45839 182.724 12.4786 174.318C18.1434 162.44 8.09292 152.39 21.0672 140.695C34.0415 129.182 27.463 123.883 35.1379 114.564C42.9956 105.244 58.8937 107.985 58.8937 107.985H91.4207C91.4207 107.985 107.319 105.244 115.176 114.564C123.034 123.883 116.273 129.182 129.247 140.695C142.221 152.207 132.171 162.258 137.836 174.318C140.211 179.252 144.049 183.09 146.79 187.841C159.947 209.221 139.846 236.083 116.821 236.083C116.821 236.083 33.3105 236.083 33.1278 236.083C17.5952 241.383 6.44829 239.373 8.64113 225.667C10.4685 215.8 -0.495697 208.125 0.0525128 198.44Z" fill="#2DBB54"/>
<path d="M75.3399 91.7215L91.0552 89.1631C91.0552 89.1631 91.0552 109.812 91.0552 124.249C91.0552 138.137 76.4363 141.426 75.3399 141.791C74.2435 141.609 59.8073 138.319 59.8073 124.431C59.8073 109.995 59.8073 89.3459 59.8073 89.3459L75.3399 91.7215Z" fill="#F9D3B7"/>
<path d="M75.3399 69.7931L59.6246 67.2348C59.6246 67.2348 59.6246 87.884 59.6246 102.32C59.6246 109.264 63.2793 113.65 66.9341 116.208C70.5888 118.766 74.9745 119.863 79.5429 119.68C83.5631 119.497 88.8624 117.67 90.5071 114.015C91.6035 111.457 90.8725 107.437 90.8725 102.503C90.8725 88.0667 90.8725 67.4175 90.8725 67.4175L75.3399 69.7931Z" fill="#F7B7A1"/>
<path d="M104.578 62.3009C104.578 62.3009 104.761 59.5599 110.243 58.4635C115.725 57.367 117.735 76.1889 107.684 78.199C97.6338 80.2091 98.7302 66.3211 104.578 62.3009Z" fill="#F4C19F"/>
<path d="M53.5943 72.5341C53.5943 72.5341 52.3151 69.9758 46.833 71.0722C41.351 72.1686 46.833 90.2596 56.7008 88.2495C66.7513 86.4221 60.3555 73.996 53.5943 72.5341Z" fill="#F4C19F"/>
<path d="M86.8523 108.533C102.019 105.427 111.887 90.625 108.781 75.6406L104.578 54.8087C101.471 39.6415 86.6696 29.7738 71.6852 32.8803C56.5181 35.9868 46.6503 50.7885 49.7568 65.7728L53.9598 86.6048C56.8836 101.589 71.6852 111.64 86.8523 108.533Z" fill="#F9D3B7"/>
<path d="M57.6146 84.2293C55.9699 75.8234 66.9341 76.3716 79.7257 73.8133C92.7 71.255 102.568 66.5038 104.212 74.9097C105.857 83.3156 93.7964 76.9198 80.8221 79.6609C68.2133 82.2192 59.4419 92.8179 57.6146 84.2293Z" fill="#F7B7A1"/>
<path d="M39.7064 64.4937C47.0158 54.626 42.4474 55.3569 43.5438 45.4892C44.6402 35.6214 55.239 27.2155 55.239 27.2155C55.239 27.2155 45.0057 18.8096 52.3152 12.7793C59.6246 6.56629 66.9341 8.21092 66.9341 8.21092C66.9341 8.21092 73.6954 -4.21516 86.4869 3.27704C97.4511 9.67281 91.6035 18.2614 87.2178 22.0989C91.0553 23.5608 99.0957 27.2155 102.75 33.6113C107.684 42.1999 103.481 44.0273 113.897 50.2403C124.313 56.6361 103.299 66.6866 108.963 74.3615C114.628 82.0365 110.791 86.4221 110.791 86.4221C110.791 86.4221 112.07 80.0264 106.222 77.2853C100.375 74.5443 98.182 69.9758 103.299 60.4735C108.233 51.154 73.3299 59.7426 63.8276 40.5553C62.5484 61.9354 45.5539 63.0319 53.7771 69.7931C62.0002 76.5544 61.8175 81.671 57.4318 86.4221C53.0461 91.1733 56.7009 96.6554 56.7009 96.6554C56.7009 96.6554 51.4015 94.0971 53.7771 84.7775C55.7872 75.6407 32.3969 74.5443 39.7064 64.4937Z" fill="#081E29"/>
<path d="M93.979 63.58C93.979 63.58 88.8623 65.2246 83.563 61.9354" stroke="#081E29" stroke-width="2.06821" stroke-miterlimit="10" stroke-linecap="round" stroke-linejoin="round"/>
<path d="M63.2793 69.793C63.2793 69.793 68.5787 69.2448 72.2334 64.3109" stroke="#081E29" stroke-width="2.06821" stroke-miterlimit="10" stroke-linecap="round" stroke-linejoin="round"/>
<path d="M71.3198 73.8133C71.5025 74.9097 70.7715 76.0061 69.6751 76.3716C68.5787 76.5543 67.4823 75.8234 67.1168 74.727C66.9341 73.6306 67.665 72.5341 68.7614 72.1687C70.0406 71.9859 71.137 72.7169 71.3198 73.8133Z" fill="#081E29"/>
<path d="M92.3344 69.6103C92.5172 70.7067 91.7862 71.8031 90.6898 72.1686C89.5934 72.3513 88.497 71.6204 88.1315 70.5239C87.9488 69.4275 88.6797 68.3311 89.7761 67.9656C90.8725 67.7829 91.969 68.5138 92.3344 69.6103Z" fill="#081E29"/>
<path d="M80.4566 89.7114C80.2739 88.9804 80.2739 88.2495 80.2739 87.5185C80.2739 84.7775 83.5632 84.0465 84.6596 86.6048C85.025 87.3358 85.2078 87.884 85.3905 88.615C85.756 89.7114 85.756 90.8078 85.5733 91.5387C85.2078 93.7316 82.6495 94.2798 81.3703 92.4524C81.0048 91.7215 80.6394 90.8078 80.4566 89.7114Z" fill="#081E29"/>
<path d="M78.6292 67.9658C78.6292 67.9658 86.1214 79.4782 81.1875 80.3918" stroke="#081E29" stroke-width="1.03411" stroke-miterlimit="10" stroke-linecap="round" stroke-linejoin="round"/>
<path d="M98.1819 154.766L92.1516 119.863C92.1516 119.863 87.5832 116.756 87.9487 108.35C88.3142 99.9446 85.7559 96.1071 83.3803 93.1833C81.5529 91.356 84.8422 88.0667 90.507 100.676C88.6796 90.0768 83.563 88.4322 84.1112 87.153C84.8422 85.8739 89.7761 87.5185 92.8826 97.0208C91.6034 87.5185 85.7559 84.412 86.6695 82.9501C87.9487 80.94 95.8064 88.2494 95.9891 97.9345C97.6337 88.2494 90.8725 84.2292 91.9689 82.0364C93.0653 79.8436 101.288 89.7113 99.8266 103.417C102.202 99.0309 99.0956 93.0006 101.106 92.2697C103.116 91.5387 106.953 105.427 99.8266 118.401C104.03 131.01 112.435 150.197 112.435 150.197L98.1819 154.766Z" fill="#F9C4A0"/>
<path d="M128.882 233.708C128.882 233.708 144.963 226.033 139.663 204.104C134.729 183.09 136.374 148.37 113.897 139.964C112.253 139.233 110.243 139.598 108.781 140.695C104.578 143.801 99.4612 144.532 96.3546 144.715C94.1618 144.715 92.3344 146.177 91.6035 148.187C89.5934 153.486 86.6696 164.816 89.9589 181.08C94.71 204.47 87.5833 231.149 104.212 235.535C120.659 239.921 128.882 233.708 128.882 233.708Z" fill="#45E471"/>
<path d="M61.0865 100.31C61.0865 100.31 71.5024 112.371 86.8523 108.533" stroke="#081E29" stroke-width="1.03411" stroke-miterlimit="10" stroke-linecap="round" stroke-linejoin="round"/>
</svg>
